<?xml version="1.0" encoding="UTF-8"?>
<svg xmlns="http://www.w3.org/2000/svg" xmlns:xlink="http://www.w3.org/1999/xlink" width="189px" height="64px" viewBox="0 0 189 64" version="1.1">
<g id="surface1">
<path style=" stroke:none;fill-rule:nonzero;fill:rgb(91.764706%,26.274511%,20.784314%);fill-opacity:1;" d="M 80.429688 32.820312 C 80.429688 41.703125 73.488281 48.25 64.96875 48.25 C 56.449219 48.25 49.507812 41.703125 49.507812 32.820312 C 49.507812 23.875 56.449219 17.390625 64.96875 17.390625 C 73.488281 17.390625 80.429688 23.875 80.429688 32.820312 Z M 73.660156 32.820312 C 73.660156 27.269531 69.636719 23.472656 64.96875 23.472656 C 60.300781 23.472656 56.277344 27.269531 56.277344 32.820312 C 56.277344 38.316406 60.300781 42.171875 64.96875 42.171875 C 69.636719 42.171875 73.660156 38.308594 73.660156 32.820312 Z M 73.660156 32.820312 "/>
<path style=" stroke:none;fill-rule:nonzero;fill:rgb(98.431373%,73.725492%,1.960784%);fill-opacity:1;" d="M 113.78125 32.820312 C 113.78125 41.703125 106.839844 48.25 98.320312 48.25 C 89.804688 48.25 82.859375 41.703125 82.859375 32.820312 C 82.859375 23.882812 89.804688 17.390625 98.320312 17.390625 C 106.839844 17.390625 113.78125 23.875 113.78125 32.820312 Z M 107.015625 32.820312 C 107.015625 27.269531 102.992188 23.472656 98.320312 23.472656 C 93.652344 23.472656 89.628906 27.269531 89.628906 32.820312 C 89.628906 38.316406 93.652344 42.171875 98.320312 42.171875 C 102.992188 42.171875 107.015625 38.308594 107.015625 32.820312 Z M 107.015625 32.820312 "/>
<path style=" stroke:none;fill-rule:nonzero;fill:rgb(25.882354%,52.156866%,95.686275%);fill-opacity:1;" d="M 145.746094 18.324219 L 145.746094 46.023438 C 145.746094 57.417969 139.03125 62.074219 131.097656 62.074219 C 123.628906 62.074219 119.132812 57.070312 117.4375 52.980469 L 123.328125 50.523438 C 124.378906 53.035156 126.949219 56 131.089844 56 C 136.171875 56 139.316406 52.863281 139.316406 46.957031 L 139.316406 44.738281 L 139.082031 44.738281 C 137.566406 46.609375 134.648438 48.242188 130.964844 48.242188 C 123.261719 48.242188 116.199219 41.523438 116.199219 32.875 C 116.199219 24.167969 123.261719 17.390625 130.964844 17.390625 C 134.640625 17.390625 137.558594 19.027344 139.082031 20.839844 L 139.316406 20.839844 L 139.316406 18.332031 L 145.746094 18.332031 Z M 139.796875 32.875 C 139.796875 27.445312 136.175781 23.472656 131.570312 23.472656 C 126.902344 23.472656 122.988281 27.445312 122.988281 32.875 C 122.988281 38.253906 126.902344 42.171875 131.570312 42.171875 C 136.175781 42.171875 139.796875 38.253906 139.796875 32.875 Z M 139.796875 32.875 "/>
<path style=" stroke:none;fill-rule:nonzero;fill:rgb(20.392157%,65.882355%,32.549021%);fill-opacity:1;" d="M 156.34375 2.085938 L 156.34375 47.304688 L 149.742188 47.304688 L 149.742188 2.085938 Z M 156.34375 2.085938 "/>
<path style=" stroke:none;fill-rule:nonzero;fill:rgb(91.764706%,26.274511%,20.784314%);fill-opacity:1;" d="M 182.066406 37.898438 L 187.320312 41.40625 C 185.621094 43.917969 181.539062 48.242188 174.476562 48.242188 C 165.722656 48.242188 159.183594 41.46875 159.183594 32.8125 C 159.183594 23.636719 165.777344 17.382812 173.71875 17.382812 C 181.71875 17.382812 185.628906 23.757812 186.910156 27.199219 L 187.609375 28.953125 L 167.007812 37.496094 C 168.585938 40.589844 171.039062 42.171875 174.476562 42.171875 C 177.925781 42.171875 180.3125 40.472656 182.066406 37.898438 Z M 165.894531 32.347656 L 179.667969 26.621094 C 178.910156 24.695312 176.632812 23.351562 173.949219 23.351562 C 170.511719 23.351562 165.722656 26.394531 165.894531 32.347656 Z M 165.894531 32.347656 "/>
<path style=" stroke:none;fill-rule:nonzero;fill:rgb(25.882354%,52.156866%,95.686275%);fill-opacity:1;" d="M 24.519531 28.808594 L 24.519531 22.261719 L 46.554688 22.261719 C 46.769531 23.402344 46.882812 24.75 46.882812 26.210938 C 46.882812 31.125 45.539062 37.195312 41.21875 41.523438 C 37.015625 45.90625 31.644531 48.242188 24.527344 48.242188 C 11.339844 48.242188 0.25 37.488281 0.25 24.285156 C 0.25 11.082031 11.339844 0.328125 24.527344 0.328125 C 31.824219 0.328125 37.023438 3.191406 40.925781 6.929688 L 36.3125 11.546875 C 33.511719 8.917969 29.71875 6.871094 24.519531 6.871094 C 14.890625 6.871094 7.359375 14.644531 7.359375 24.285156 C 7.359375 33.925781 14.890625 41.699219 24.519531 41.699219 C 30.769531 41.699219 34.324219 39.1875 36.605469 36.90625 C 38.453125 35.054688 39.667969 32.410156 40.148438 28.800781 Z M 24.519531 28.808594 "/>
</g>
</svg>
