<?xml version="1.0" encoding="UTF-8" standalone="no"?>
<!-- Created with Inkscape (http://www.inkscape.org/) -->

<svg
   width="384.49176"
   height="144"
   viewBox="0 0 101.73011 38.100001"
   version="1.1"
   id="svg1"
   xml:space="preserve"
   xmlns="http://www.w3.org/2000/svg"
   xmlns:svg="http://www.w3.org/2000/svg"><defs
     id="defs1" /><rect
     style="fill:#ffffff;fill-opacity:1;stroke-width:0.225147"
     id="rect7"
     width="101.6"
     height="38.100002"
     x="0.13011815"
     y="-4.2683573e-16" /><g
     id="layer1"><path
       style="fill:#757575;fill-opacity:1;stroke:none"
       d="m 16.11545,17.29709 v 13.34868 h 1.758508 v -5.43539 c 1.646936,0 3.550154,0.298701 5.03573,-0.549349 2.562458,-1.462798 2.63154,-5.132259 0.159864,-6.717267 -1.864473,-1.19563 -4.829855,-0.646674 -6.954102,-0.646674 m 27.496682,1.43878 v 1.998306 l -0.185273,0.71717 -1.413371,0.08215 v 1.518712 h 1.598644 c 0,2.613877 -0.980872,7.676271 2.87756,7.75219 0.515378,0.01014 1.025102,-0.09985 1.518712,-0.238562 l -0.639458,-1.518712 c -0.746525,0.209788 -1.546613,0.214423 -1.873348,-0.639458 -0.216062,-0.564643 -0.124957,-1.245499 -0.124957,-1.838441 V 23.05221 h 2.238102 v -1.518712 c -0.477296,0 -1.756797,0.224977 -2.10994,-0.128163 -0.412457,-0.412458 -0.128162,-2.101372 -0.128162,-2.669465 h -1.758509 m -25.552899,0.208095 c 0.304064,-0.149619 0.841477,-0.04823 1.173573,-0.04823 1.055538,0 2.280473,-0.128773 3.116122,0.647844 1.158229,1.076411 0.949122,3.013718 -0.478359,3.762429 -0.868033,0.455281 -2.011014,0.305727 -2.957492,0.305727 -0.251846,0 -0.778458,0.09722 -0.956965,-0.128163 -0.176078,-0.222316 -0.08215,-0.724866 -0.08215,-0.990888 v -2.557831 c 0,-0.266392 -0.109118,-0.846025 0.185275,-0.990888 m 9.406591,5.147364 c 1.034297,-2.35149 4.474646,-1.245965 4.476204,1.119051 -0.765417,-0.357954 -1.488296,-0.449846 -2.318034,-0.522458 -0.568629,-0.04976 -1.212216,0.06085 -1.758509,0.215125 -2.092224,0.590859 -3.25343,3.15764 -1.705036,4.92977 0.96057,1.099368 2.680181,1.353308 4.023071,0.912929 0.740173,-0.242726 1.228706,-0.759482 1.758508,-1.298959 v 1.198983 h 1.678577 c 0,-2.977238 1.080229,-8.139991 -2.637763,-9.255486 -0.475505,-0.142662 -0.945809,-0.176483 -1.43878,-0.176515 -0.700436,-4.4e-5 -1.361202,0.06516 -1.998305,0.384488 -0.415029,0.208022 -1.916273,1.204409 -1.58779,1.81377 0.192969,0.357972 1.135688,0.5909 1.507857,0.679302 M 50.9659,22.732483 V 21.5335 h -1.598645 v 9.112272 h 1.678577 c 0,-1.929926 -0.530834,-4.815743 0.424703,-6.554441 0.76403,-1.390235 2.839726,-1.852546 3.823667,-0.399601 0.47729,0.704796 0.387698,1.590749 0.387698,2.397906 v 4.556136 h 1.758509 V 26.2495 c 0,-0.962338 0.07399,-1.952463 -0.246148,-2.877559 -0.646279,-1.867562 -2.839385,-2.694744 -4.629717,-1.893395 -0.686659,0.307347 -1.063439,0.765296 -1.598644,1.253937 m 16.625901,5.675187 c -0.377459,-0.146402 -1.095492,-0.613283 -1.501691,-0.496493 -0.404598,0.116332 -0.725698,0.858876 -1.136072,1.093394 -1.364873,0.779993 -3.140784,0.188215 -3.888802,-1.156426 -0.250828,-0.450892 -0.333428,-0.939292 -0.427538,-1.43878 h 5.275526 c 0.437032,0 1.51799,0.196757 1.870143,-0.08215 0.272171,-0.215565 0.08435,-0.831849 0.05224,-1.116831 -0.134647,-1.195222 -0.642322,-2.357845 -1.602962,-3.116123 -1.657721,-1.308521 -4.413835,-1.205598 -5.901046,0.325711 -1.183347,1.218434 -1.59581,2.974284 -1.337386,4.628852 0.652137,4.175324 6.860588,5.529779 8.597587,1.358848 m -30.29431,-5.43539 h -0.07993 v -1.43878 h -1.678582 v 9.112272 h 1.758509 c 0,-2.229725 -0.909102,-6.546192 1.758509,-7.506412 0.570902,-0.2055 1.162076,-0.16708 1.758508,-0.16708 v -1.678577 c -1.328624,0 -3.0601,0.14024 -3.517017,1.678577 m 33.891259,0 h -0.07993 v -1.43878 h -1.678578 v 9.112272 h 1.758508 v -4.156475 c 0,-0.828811 -0.0575,-1.685102 0.450668,-2.397966 0.421883,-0.59182 1.054101,-1.034797 1.787434,-1.104864 0.303039,-0.02895 0.736797,0.156922 1.005691,-0.01672 0.363183,-0.23453 0.563638,-1.116741 0.672886,-1.516183 -1.414943,-0.291891 -3.415536,-0.168548 -3.916679,1.518713 m -5.195594,1.998305 h -5.195594 c 0.417176,-2.783187 5.05865,-2.989921 5.195594,0 M 29.46413,26.112516 c 0.582192,-0.07146 2.154147,-0.02054 2.42936,0.633598 0.540136,1.283831 -1.525025,2.503007 -2.509292,2.606864 -1.346932,0.142123 -2.721704,-1.06207 -1.774482,-2.382918 0.436907,-0.609244 1.151133,-0.771216 1.854414,-0.857544 z"
       id="path7" /><rect
       style="fill:#4285f4;fill-opacity:1;stroke-width:0.246982"
       id="rect1"
       width="8.9958334"
       height="38.100002"
       x="0"
       y="1.0587912e-22" /><g
       id="g1"
       transform="matrix(0.12508622,0,0,0.12508622,15.632701,5.911584)"><path
         fill="#ea4335"
         d="m 115.75,47.18 c 0,12.77 -9.99,22.18 -22.25,22.18 C 81.24,69.36 71.25,59.95 71.25,47.18 71.25,34.32 81.24,25 93.5,25 c 12.26,0 22.25,9.32 22.25,22.18 z m -9.74,0 c 0,-7.98 -5.79,-13.44 -12.51,-13.44 -6.72,0 -12.51,5.46 -12.51,13.44 0,7.9 5.79,13.44 12.51,13.44 6.72,0 12.51,-5.55 12.51,-13.44 z"
         id="path1" /><path
         fill="#fbbc05"
         d="m 163.75,47.18 c 0,12.77 -9.99,22.18 -22.25,22.18 -12.26,0 -22.25,-9.41 -22.25,-22.18 0,-12.85 9.99,-22.18 22.25,-22.18 12.26,0 22.25,9.32 22.25,22.18 z m -9.74,0 c 0,-7.98 -5.79,-13.44 -12.51,-13.44 -6.72,0 -12.51,5.46 -12.51,13.44 0,7.9 5.79,13.44 12.51,13.44 6.72,0 12.51,-5.55 12.51,-13.44 z"
         id="path2" /><path
         fill="#4285f4"
         d="m 209.75,26.34 v 39.82 c 0,16.38 -9.66,23.07 -21.08,23.07 -10.75,0 -17.22,-7.19 -19.66,-13.07 l 8.48,-3.53 c 1.51,3.61 5.21,7.87 11.17,7.87 7.31,0 11.84,-4.51 11.84,-13 v -3.19 h -0.34 c -2.18,2.69 -6.38,5.04 -11.68,5.04 -11.09,0 -21.25,-9.66 -21.25,-22.09 0,-12.52 10.16,-22.26 21.25,-22.26 5.29,0 9.49,2.35 11.68,4.96 h 0.34 v -3.61 h 9.25 z m -8.56,20.92 c 0,-7.81 -5.21,-13.52 -11.84,-13.52 -6.72,0 -12.35,5.71 -12.35,13.52 0,7.73 5.63,13.36 12.35,13.36 6.63,0 11.84,-5.63 11.84,-13.36 z"
         id="path3" /><path
         fill="#34a853"
         d="m 225,3 v 65 h -9.5 V 3 Z"
         id="path4" /><path
         fill="#ea4335"
         d="m 262.02,54.48 7.56,5.04 c -2.44,3.61 -8.32,9.83 -18.48,9.83 -12.6,0 -22.01,-9.74 -22.01,-22.18 0,-13.19 9.49,-22.18 20.92,-22.18 11.51,0 17.14,9.16 18.98,14.11 L 270,41.62 240.35,53.9 c 2.27,4.45 5.8,6.72 10.75,6.72 4.96,0 8.4,-2.44 10.92,-6.14 z m -23.27,-7.98 19.82,-8.23 c -1.09,-2.77 -4.37,-4.7 -8.23,-4.7 -4.95,0 -11.84,4.37 -11.59,12.93 z"
         id="path5" /><path
         fill="#4285f4"
         d="M 35.29,41.41 V 32 H 67 c 0.31,1.64 0.47,3.58 0.47,5.68 0,7.06 -1.93,15.79 -8.15,22.01 -6.05,6.3 -13.78,9.66 -24.02,9.66 C 16.32,69.35 0.36,53.89 0.36,34.91 0.36,15.93 16.32,0.47 35.3,0.47 c 10.5,0 17.98,4.12 23.6,9.49 L 52.26,16.6 C 48.23,12.82 42.77,9.88 35.29,9.88 c -13.86,0 -24.7,11.17 -24.7,25.03 0,13.86 10.84,25.03 24.7,25.03 8.99,0 14.11,-3.61 17.39,-6.89 2.66,-2.66 4.41,-6.46 5.1,-11.65 z"
         id="path6" /></g></g></svg>
