<?xml version="1.0" encoding="UTF-8" standalone="no"?>
<!-- Created with Inkscape (http://www.inkscape.org/) -->

<svg
   version="1.1"
   id="svg1"
   width="601.55725"
   height="178.56"
   viewBox="0 0 601.55725 178.56"
   xmlns="http://www.w3.org/2000/svg"
   xmlns:svg="http://www.w3.org/2000/svg">
  <defs
     id="defs1" />
  <g
     id="g1"
     transform="translate(-5.473032,-4.2057771)">
    <path
       style="fill:#0e0f14;fill-opacity:1"
       d="M 80.639997,114.60577 V 46.445777 h 11.52 H 103.68 l 0.11374,5.04 c 0.0626,2.772 0.0436,5.58 -0.0421,6.24 -0.0857,0.66 0.29511,1.2 0.84625,1.2 0.55115,0 1.00209,-0.42568 1.00209,-0.94596 0,-0.52028 2.484,-2.90815 5.52,-5.30637 15.42677,-12.18606 38.35489,-10.57017 51.80469,3.65102 7.83991,8.28954 11.4282,17.25936 12.19202,30.4769 1.75363,30.346043 -18.78449,54.114013 -45.42767,52.571663 -8.83857,-0.51166 -14.2094,-2.81629 -21.19046,-9.09287 L 103.68,125.94784 v 28.40897 28.40896 h -11.520003 -11.52 z m 56.334093,8.05304 c 7.56159,-5.64554 11.72005,-15.17492 12.51886,-28.687803 0.86128,-14.56973 -3.47869,-26.65441 -11.47212,-31.94422 -3.29586,-2.18109 -5.00271,-2.61641 -10.26694,-2.6185 -8.01569,-0.003 -12.66659,2.21675 -16.92305,8.07758 -4.88295,6.72345 -6.63179,13.30576 -6.6528,25.03991 -0.022,12.305693 1.82165,18.998253 6.85292,24.876173 4.96424,5.79959 9.83653,7.90764 17.3587,7.51043 4.13325,-0.21826 6.79386,-0.91672 8.58443,-2.25357 z M 24.304179,138.62065 c -4.380399,-0.93027 -12.87519,-4.84306 -16.5276628,-7.61282 l -2.303484,-1.74678 3.0065346,-5.16764 c 1.6535952,-2.8422 3.3751412,-5.72622 3.8256592,-6.40893 0.627938,-0.95157 1.969803,-0.46694 5.749155,2.07638 6.47471,4.35716 10.889169,5.72764 16.662417,5.1729 6.816836,-0.65501 10.403201,-4.25197 10.403201,-10.43394 0,-5.80174 -2.035931,-8.29064 -14.507966,-17.735803 -10.421176,-7.89204 -15.683461,-12.9294 -17.828293,-17.06625 -2.015091,-3.88662 -2.634039,-11.87598 -1.301928,-16.80529 1.505469,-5.5708 8.282051,-12.74687 14.606503,-15.46757 6.199273,-2.66686 17.055442,-3.53773 24.888982,-1.99657 5.990306,1.17852 16.222701,5.17404 16.222701,6.3346 0,1.21364 -6.220728,11.00284 -6.99196,11.00284 -0.430863,0 -2.013828,-0.63628 -3.517701,-1.41396 -8.570488,-4.43198 -17.907986,-3.68324 -21.235087,1.70276 -3.497861,5.66242 -1.801999,8.32104 12.544748,19.6665 18.676061,14.7691 21.470081,18.599843 21.505158,29.484693 0.03726,11.56143 -6.147867,19.8844 -18.456458,24.83579 -5.126572,2.06227 -20.261513,2.95589 -26.744519,1.57909 z m 221.408351,-0.30158 c -9.6293,-2.7311 -15.91574,-9.00094 -18.90195,-18.85205 -1.38283,-4.5618 -1.62433,-10.24448 -1.65485,-38.941243 l -0.0357,-33.6 12.19301,-0.26833 12.193,-0.26833 0.287,32.90833 c 0.28447,32.619463 0.30677,32.940123 2.53967,36.531593 3.79609,6.10573 11.96552,8.70294 20.30845,6.45642 6.29712,-1.69563 9.53342,-4.43896 12.35478,-10.47279 l 2.50951,-5.3669 0.33899,-29.999993 0.33898,-30 h 11.90831 11.9083 v 45.6 45.599993 h -12 -12 v -5.76 c 0,-3.168 -0.27569,-5.76 -0.61264,-5.76 -0.33696,0 -2.52929,1.7667 -4.87186,3.92601 -6.72133,6.19551 -13.39483,8.77687 -23.71184,9.17195 -5.26059,0.20144 -10.45743,-0.15768 -13.09112,-0.90466 z m 227.98275,-23.68866 c -9.46841,-13.18645 -17.53929,-23.986433 -17.93529,-23.999993 -0.396,-0.0136 -0.72,10.559353 -0.72,23.495353 v 23.52 h -12 -12 V 70.925777 4.2057772 h 12 12 V 43.152547 c 0,37.39002 0.0711,38.93451 1.77923,38.64 0.97858,-0.16872 8.80218,-8.43472 17.38579,-18.36888 11.54637,-13.3631 16.01609,-17.91288 17.18076,-17.48848 5.37942,1.96022 16.42514,6.82882 16.40454,7.23059 -0.0135,0.264 -2.9239,3.58111 -6.46747,7.37136 -17.39174,18.60241 -23.24286,25.06809 -23.24286,25.68414 0,0.37019 8.03197,10.61218 17.84882,22.759963 9.81684,12.1478 17.68096,22.25475 17.47582,22.45989 -0.67929,0.67929 -19.85976,7.16464 -21.18947,7.16464 -0.71752,0 -9.05146,-10.78891 -18.51987,-23.97536 z M 185.27999,70.925777 V 4.2057772 h 12 12 V 70.925777 137.64577 h -12 -12 z m 143.04,21.12 v -45.6 h 12 12 v 5.75611 5.7561 l 5.9236,-4.77329 c 8.033,-6.47307 13.31463,-8.18063 25.2764,-8.17193 7.95461,0.006 10.44036,0.38617 14.5031,2.21933 6.08048,2.74359 11.1226,7.81599 14.00952,14.09368 2.1585,4.69371 2.21388,5.59188 2.50094,40.559993 l 0.29356,35.76 h -12.05356 -12.05356 l -0.0229,-30 c -0.0126,-16.499993 -0.41592,-31.694553 -0.89628,-33.765693 -1.68305,-7.25678 -6.71233,-11.81884 -13.97443,-12.67623 -6.49484,-0.7668 -12.30341,0.98604 -16.83531,5.08033 -6.20107,5.6023 -6.67108,8.57943 -6.67108,42.255833 v 29.10576 h -12 -12 z m 207.79636,-53.71636 c -5.22369,-5.22369 -1.80739,-13.96364 5.45816,-13.96364 5.8024,0 9.41214,5.57171 7.13721,11.01639 -2.36321,5.65594 -8.46005,7.08257 -12.59537,2.94725 z m 8.77992,-0.29834 c 1.44188,-0.96277 3.26371,-4.56088 3.26371,-6.44582 0,-2.14462 -4.319,-6.25948 -6.57001,-6.25948 -2.55306,0 -5.71049,2.86071 -6.40332,5.80155 -1.15047,4.88342 5.57437,9.66493 9.70962,6.90375 z m -6.14889,-5.73666 c 0.32083,-4.99047 1.837,-6.1079 5.07493,-3.74027 1.45659,1.06509 1.62228,1.65656 0.75635,2.69995 -0.71419,0.86054 -0.79194,1.83714 -0.21846,2.74388 1.14466,1.80985 1.15359,2.8478 0.0245,2.8478 -0.49241,0 -1.16953,-0.864 -1.50469,-1.92 -0.33516,-1.056 -1.01227,-1.92 -1.50469,-1.92 -0.49242,0 -0.89531,0.864 -0.89531,1.92 0,1.056 -0.45567,1.92 -1.0126,1.92 -0.60889,0 -0.89594,-1.81457 -0.72,-4.55136 z m 3.7966,-1.68864 c 0,-0.5016 -0.4644,-1.0668 -1.032,-1.256 -0.5676,-0.1892 -1.032,0.376 -1.032,1.256 0,0.88 0.4644,1.4452 1.032,1.256 0.5676,-0.1892 1.032,-0.7544 1.032,-1.256 z"
       id="path12" />
    <path
       style="fill:#73b036;fill-opacity:1"
       d="m 535.06654,125.89827 0.0362,-7.44 27.94191,-13.70184 c 15.36805,-7.536013 27.68372,-13.96004 27.36814,-14.27562 -0.31558,-0.31558 -12.79775,-6.49866 -27.73816,-13.74018 l -27.16434,-13.1664 -0.27882,-7.83798 c -0.15336,-4.31089 -0.0513,-7.83798 0.22669,-7.83798 0.27804,0 16.49551,8.02376 36.03883,17.83056 l 35.5333,17.83056 v 7.40689 7.406887 L 571.5806,115.85572 c -19.49733,9.6154 -35.69733,17.48255 -36,17.48255 -0.30267,0 -0.534,-3.348 -0.51406,-7.44 z"
       id="path12-8" />
  </g>
</svg>
