<?xml version="1.0" encoding="UTF-8" standalone="no"?>
<!-- Created with Inkscape (http://www.inkscape.org/) -->

<svg
   version="1.1"
   id="svg1"
   width="1241.0797"
   height="689.30078"
   viewBox="0 0 1241.0797 689.30078"
   xmlns="http://www.w3.org/2000/svg"
   xmlns:svg="http://www.w3.org/2000/svg">
  <defs
     id="defs1" />
  <g
     id="g1"
     transform="translate(-183.28253,-78.189308)">
    <path
       style="fill:#ed3c2c;fill-opacity:1"
       d="M 698.33333,416.53165 608,365.62245 v -5.5015 c 0,-4.8728 0.48482,-5.7311 4.24249,-7.5107 4.18254,-1.9808 4.44162,-1.8964 18.33333,5.9758 68.06664,38.5722 157.90071,88.8829 158.70794,88.8829 0.54924,0 13.68508,-7.1512 29.19076,-15.8917 15.50568,-8.7404 28.20133,-15.4904 28.21256,-15 0.0112,0.4905 0.46123,0.2346 1,-0.5687 0.53877,-0.8032 24.22959,-14.5481 52.64625,-30.5442 L 952,356.38045 v -19.265 c 0,-15.9279 -0.32205,-19.1415 -1.85911,-18.5517 -1.02252,0.3924 -37.6309,20.8662 -81.35196,45.4974 l -79.49283,44.7841 -90.6305,-51.0215 -90.6305,-51.0214 -0.0176,-34.7126 -0.0176,-34.7125 4.01724,-2.373 4.01723,-2.3731 48.3161,27.2498 c 26.57385,14.9874 65.56277,36.9504 86.64204,48.8065 l 38.32595,21.5567 81.3067,-45.7209 81.3067,-45.7209 0.034,-19 c 0.0189,-10.5266 -0.50618,-19.00005 -1.17727,-19.00005 -0.66621,0 -36.51621,19.90195 -79.66667,44.22645 -43.15045,24.3246 -79.65537,44.4365 -81.12204,44.6931 -1.64551,0.288 -36.87552,-18.8478 -92,-49.9713 l -89.33333,-50.43801 v -5.09601 -5.09601 L 698,128.68182 c 49.13333,-27.74128 90.13428,-50.462881 91.11322,-50.492441 0.97893,-0.0296 18.07893,9.15716 38,20.41494 19.92106,11.257781 50.47011,28.493161 67.88678,38.300841 28.99989,16.33045 31.66667,18.13259 31.66667,21.39962 0,2.69637 -1.19696,4.27367 -4.9021,6.45976 -2.69616,1.59077 -5.84616,2.64258 -7,2.33737 -1.15385,-0.30522 -29.8542,-16.20377 -63.77857,-35.33012 L 789.30534,96.996629 727.65267,131.72194 c -89.65468,50.49721 -90.6348,51.06422 -90.69058,52.46505 -0.0281,0.70509 34.23995,20.62121 76.15117,44.25806 l 76.20223,42.9761 86.14194,-48.5193 86.14193,-48.51932 4.53366,2.67492 4.53365,2.67492 -0.0431,34.20168 -0.0431,34.2016 -40.95687,22.9237 c -22.52628,12.6081 -63.33116,35.5298 -90.6775,50.9372 l -49.72063,28.0135 -79.47648,-44.7214 c -43.71206,-24.5967 -80.28778,-45.0326 -81.27937,-45.4132 -1.46347,-0.5615 -1.80289,2.919 -1.80289,18.4874 v 19.1792 l 59,33.2624 c 32.45,18.2943 69.04936,38.8864 81.33192,45.7602 l 22.33192,12.4978 86.64356,-48.7488 86.64355,-48.7488 4.01609,2.2854 4.0161,2.2854 0.008,34.7081 0.008,34.7081 L 939,383.39445 c -17.41667,9.8135 -57.53042,32.4306 -89.14167,50.2602 -31.61125,17.8297 -58.31125,32.7255 -59.33333,33.1018 -1.02208,0.3764 -42.50833,-22.2248 -92.19167,-50.2248 z"
       id="path1" />
    <path
       style="fill:#000000"
       d="m 233.38081,765.92545 c -22.34935,-5.2595 -42.50189,-26.4411 -48.21472,-50.6767 -4.21994,-17.9023 -1.19318,-40.3162 7.51712,-55.6661 19.70565,-34.7266 66.49017,-44.0875 94.74318,-18.9567 3.47062,3.0871 6.92062,5.2356 7.66667,4.7745 0.86638,-0.5354 1.35644,-14.057 1.35644,-37.4263 v -36.5879 h 14.66667 14.66667 v 96.6666 96.6667 H 311.11617 296.4495 v -7.9213 c 0,-4.3567 -0.62261,-8.3061 -1.38358,-8.7764 -0.76098,-0.4703 -3.68621,1.2251 -6.50052,3.7677 -14.60366,13.1935 -35.95193,18.662 -55.18459,14.1359 z m 40.22713,-29.784 c 8.97423,-4.5475 15.76224,-11.5576 19.98628,-20.6399 2.90301,-6.242 3.45264,-9.2847 3.39278,-18.782 -0.0831,-13.19 -2.76342,-20.5528 -10.66601,-29.3 -23.8562,-26.406 -66.75787,-13.4886 -72.28614,21.7647 -4.51903,28.8175 16.12932,52.7556 43.95099,50.9535 5.98287,-0.3876 11.06739,-1.6882 15.6221,-3.9963 z m 114.53717,28.2039 c -28.60299,-10.02 -45.64061,-35.6431 -45.4098,-68.2925 0.15505,-21.9324 7.37926,-38.7003 22.8717,-53.0867 22.84922,-21.2179 59.38675,-22.1662 81.1494,-2.1061 3.1678,2.92 6.34466,4.9475 7.0597,4.5056 0.71503,-0.4419 1.30006,-4.0681 1.30006,-8.0581 v -7.2547 h 14.66667 14.66666 v 67.3334 67.3333 h -14.66666 -14.66667 v -8.6667 c 0,-5.5903 -0.53868,-8.6666 -1.51756,-8.6666 -0.83466,0 -4.17689,2.4512 -7.42719,5.4473 -3.25029,2.996 -9.85015,7.2913 -14.66636,9.545 -7.43859,3.481 -10.6859,4.1739 -21.57281,4.6036 -10.87941,0.4294 -14.17172,0.031 -21.78714,-2.6368 z m 44.80017,-28.1505 c 8.42621,-4.1225 15.93431,-11.8781 19.98679,-20.6454 4.2941,-9.2902 4.06348,-28.9508 -0.447,-38.107 -10.09618,-20.4951 -34.73129,-29.676 -54.87898,-20.4521 -34.94674,15.9992 -32.82805,68.4349 3.28669,81.3426 9.61836,3.4377 22.39842,2.5852 32.0525,-2.1381 z m 210.3104,29.1658 c -17.36077,-4.8725 -32.94399,-18.067 -40.64733,-34.4168 -6.0085,-12.7525 -7.65293,-20.2982 -7.61295,-34.9327 0.097,-35.506 23.23028,-63.8963 56.22616,-69.0035 17.09527,-2.6461 33.34409,1.7943 46.8647,12.807 4.0891,3.3306 7.79364,5.6967 8.23232,5.258 0.43867,-0.4386 0.79759,-3.9976 0.79759,-7.9087 v -7.1111 h 14.66667 14.66666 v 67.3785 67.3784 l -14.33333,-0.3784 -14.33333,-0.3785 -0.39696,-8.3333 c -0.23269,-4.8848 -0.99863,-8.3333 -1.85089,-8.3333 -0.79967,0 -4.11327,2.4512 -7.36357,5.4473 -3.25029,2.996 -9.83248,7.283 -14.62708,9.5267 -7.29993,3.416 -10.69942,4.1558 -20.90614,4.5494 -8.14959,0.3143 -14.57259,-0.199 -19.38252,-1.549 z m 41.6896,-29.1658 c 14.32666,-7.0094 22.30212,-19.4804 23.22678,-36.3192 1.08183,-19.7011 -6.72225,-33.8812 -23.07813,-41.9332 -17.10377,-8.4202 -35.80742,-4.995 -48.61858,8.9035 -8.55263,9.2785 -11.23402,16.3969 -11.30195,30.0039 -0.0525,10.5265 0.32426,12.2119 4.60944,20.6165 10.58064,20.752 34.45739,28.8586 55.16244,18.7285 z m 133.85349,28.6022 c -8.04087,-2.5705 -18.97362,-8.9441 -23.02972,-13.4261 -4.37149,-4.8304 -5.98621,-3.3759 -5.98621,5.3923 v 8.0436 l -15,-0.377 -15,-0.377 -0.44018,-13.3333 c -0.24209,-7.3333 -0.0201,-50.6833 0.49337,-96.3333 l 0.93354,-83 h 14.50664 14.50663 v 37.3333 c 0,26.1914 0.43634,37.3333 1.46206,37.3333 0.80414,0 4.17975,-2.3922 7.50135,-5.316 29.50773,-25.9737 77.10717,-15.3816 95.69212,21.294 10.65948,21.0355 10.65948,48.3419 0,69.3773 -8.00053,15.7883 -22.56183,28.2436 -38.9294,33.299 -11.02285,3.4046 -26.22469,3.4419 -36.7102,0.09 z m 30.23145,-28.6437 c 8.1103,-3.968 15.14644,-11.332 19.74626,-20.6664 2.44498,-4.9616 3.00636,-8.3415 3.00636,-18.1007 0,-10.162 -0.53503,-13.1409 -3.49309,-19.4487 -15.15103,-32.308 -60.51049,-32.6044 -75.75858,-0.4951 -4.17168,8.7847 -5.15246,22.9113 -2.27734,32.8013 7.30332,25.1226 35.22643,37.4315 58.77639,25.9096 z m 264.27918,29.1209 c -31.097,-7.5278 -51.5682,-34.4886 -51.5069,-67.8348 0.054,-29.238 13.2033,-51.2982 37.8062,-63.4256 18.9126,-9.3224 43.7062,-10.3053 62.4312,-2.4749 7.558,3.1606 25.0762,14.097 25.0762,15.6548 0,0.5149 -3.8327,4.7348 -8.5172,9.3777 l -8.5172,8.4415 -10.4084,-5.1467 c -9.1869,-4.5428 -11.747,-5.1992 -21.8161,-5.5936 -14.4593,-0.5665 -23.966,2.6543 -32.5983,11.044 -7.3757,7.1684 -11.0017,14.135 -12.6173,24.2419 -3.1432,19.6631 5.9565,37.9125 22.8997,45.9254 14.7437,6.9726 28.6454,6.3469 45.1378,-2.0316 l 9.0458,-4.5955 7.6956,8.0443 c 4.2326,4.4244 7.8634,8.4968 8.0684,9.0497 0.4577,1.2344 -11.4704,9.253 -20.7876,13.9744 -14.5592,7.3777 -34.4565,9.4486 -51.3919,5.349 z m 245.8067,0.2827 c -12.9092,-3.7426 -23.1115,-10.9767 -30.0858,-21.3329 -2.5195,-3.7413 -4.5809,-7.5058 -4.5809,-8.3657 0,-2.2809 23.1035,-14.4951 23.7499,-12.556 1.4248,4.2744 9.5725,12.8935 14.7932,15.649 10.0914,5.3262 24.9012,3.4862 29.9493,-3.721 1.1959,-1.7073 2.1743,-5.5584 2.1743,-8.558 0,-8.2057 -4.5873,-11.7908 -22.8448,-17.8538 -33.9453,-11.2725 -43.1399,-20.2503 -43.1155,-42.099 0.01,-8.9555 0.5822,-11.7554 3.5671,-17.4534 13.3798,-25.5409 52.7263,-30.8173 77.0683,-10.3349 4.9131,4.1341 11.9916,13.3926 11.9916,15.6848 0,0.8231 -5.1484,4.183 -11.4409,7.4666 l -11.4409,5.9702 -2.1887,-3.3333 c -4.4381,-6.7591 -10.9408,-11.8452 -16.6111,-12.9923 -15.6094,-3.1578 -27.5709,6.8792 -21.7086,18.2157 2.9027,5.6133 5.6673,7.1618 24.0608,13.4774 8.7978,3.0208 18.6045,7.0085 21.7926,8.8615 17.3731,10.0975 23.9652,26.9986 17.923,45.9512 -3.1567,9.9014 -14.1442,20.922 -25.0627,25.1383 -9.7161,3.7519 -28.8003,4.8498 -37.9902,2.1856 z m -810.42311,-2.0398 c -10.48311,-3.6206 -17.81054,-11.4085 -22.00373,-23.3864 -0.82188,-2.3477 -1.74131,-21.3322 -2.167,-44.7445 l -0.73942,-40.6667 -11.66667,-0.3853 -11.66667,-0.3852 v -11.9481 -11.9481 h 9.89095 c 5.44003,0 10.84003,-0.3642 12,-0.8093 1.79679,-0.6895 2.10905,-3.8481 2.10905,-21.3333 v -20.524 h 14.63281 14.63281 l 0.36719,21 0.36719,21 15.71796,0.376 15.71795,0.3761 -0.38462,11.6239 -0.38462,11.624 -15.33333,0.6666 -15.33334,0.6667 -0.35685,33.1035 c -0.39121,36.2912 0.33535,41.7468 6.36241,47.7738 3.63597,3.636 4.30606,3.7894 16.55855,3.7894 h 12.76923 v 12.5 12.5 l -4.16667,0.8333 c -8.81723,1.7634 -29.67229,0.8019 -36.92318,-1.7024 z m 370.42318,-66.1309 v -67.3334 h 14.66667 14.66666 v 8.588 c 0,4.8013 0.64592,8.9872 1.46492,9.4933 0.82211,0.5081 3.97133,-1.9598 7.17681,-5.6242 8.0163,-9.1638 17.4599,-14.0106 28.8922,-14.8286 l 9.1327,-0.6535 v 15.1792 15.1792 l -7.6651,0.079 c -10.604,0.1085 -17.1207,2.6387 -24.4475,9.492 -12.13507,11.351 -14.52646,22.3307 -14.54089,66.7628 l -0.0101,31 h -14.6657 -14.66667 z m 95.55553,66.4444 c -0.4889,-0.4889 -0.8889,-30.7889 -0.8889,-67.3333 v -66.4445 h 15.3333 15.3333 v 67.3334 67.3333 h -14.4444 c -7.9445,0 -14.8445,-0.4 -15.3333,-0.8889 z m 188.4444,-95.7778 v -96.6666 h 14.6667 14.6666 v 53.2546 c 0,37.6409 0.4347,53.5233 1.4827,54.171 0.8655,0.5349 11.832,-9.4223 26.3462,-23.9213 l 24.8635,-24.8377 h 17.9755 17.9755 l -28.3217,28.3447 c -15.5769,15.5896 -28.3217,28.8218 -28.3217,29.405 0,0.5831 13.65,17.5687 30.3334,37.7459 16.6833,20.1771 30.5333,37.2449 30.7777,37.9284 0.2605,0.7282 -6.916,1.2421 -17.3333,1.2412 h -17.7778 l -24,-29.971 c -13.2,-16.4841 -24.9454,-29.9835 -26.1009,-29.9986 -1.1555,-0.015 -3.4055,1.3612 -5,3.0585 -2.7789,2.958 -2.8991,4.2018 -2.8991,30 v 26.9136 h -14.6666 -14.6667 z m -182.3071,-62.5708 c -12.4532,-5.6238 -12.7568,-25.685 -0.4847,-32.0311 18.4555,-9.5438 35.7093,13.64 21.0562,28.2931 -5.423,5.423 -13.5644,6.9024 -20.5715,3.738 z"
       id="path1-5" />
  </g>
</svg>
