<?xml version="1.0" encoding="UTF-8" standalone="no"?>
<svg
   height="462.84729"
   viewBox="-225.55831 -314.66993 1270.0044 240.09221"
   width="2115.3228"
   version="1.1"
   id="svg2"
   xmlns="http://www.w3.org/2000/svg"
   xmlns:svg="http://www.w3.org/2000/svg">
  <defs
     id="defs2" />
  <path
     d="m 465.24596,-241.86672 h 28.4 v 79 c 0,40.1 -22.1,63.099999 -60.6,63.099999 -38.1,0 -60,-22.599999 -60,-61.999999 v -80 h 28.4 v 79.1 c 0,23.4 11.5,35.9 32,35.9 20.5,0 31.8,-12.2 31.8,-34.9 z m -160,56.4 h -64.2 v -56.4 h -28.4 v 140 h 28.4 v -56.9 h 64.1 v 56.9 h 28.4 v -140 h -28.4 v 56.4 z m 711.20004,-56.4 v 139.8 h 28 v -139.8 z m -111.50004,79.7 h 51.7 v -25.5 h -51.7 v -28.7 h 75 v -25.4 h -103 v 139.8 h 105.7 v -25.5 h -77.7 z m -111.4,16.5 -31.8,-96.3 h -23.2 l -31.8,96.3 -30.9,-96.2 h -30.2 l 48.8,139.9 h 23.5 l 31.8,-91.9 31.8,91.9 h 23.7 l 48.7,-139.9 h -29.5 z m -198.4,-95.4 61.1,139.1 h -29.8 l -12.6,-29.1 h -64.1 l -0.9,2 -11.8,27.1 h -29 l 61.7,-139.9 h 24.8 z m 6.8,81.4 -20.2,-46.9 -20.1,46.9 -1.4,3.2 h 43 z"
     fill="#24272a"
     id="path1" />
  <path
     d="m -66.95404,-116.76672 c 0.4,-0.3 0.5,-0.9 0.3,-1.4 a 839.8,839.8 0 0 0 -102.5,-166.4 c 0,0 -32.2,30.6 -29.9,61.3 a 54,54 0 0 0 18.7,36.9 c 28.1,27.4 96.1,62 111.9,69.9 0.5,0.2 1.1,0.1 1.5,-0.3 m -10.5,23.399999 c -0.2,-0.6 -0.8,-1 -1.5,-1 l -113.2,3.9 c 12.3,21.9 33,38.9 54.5,33.7 14.9,-3.7 48.5,-27.2 59.6,-35.2 0.9,-0.7 0.6,-1.3 0.6,-1.4 m 1.7,-10.099999 c 0.6,-0.9 -0.4,-1.7 -0.4,-1.7 -49.7,-33.6 -146.1,-85.2 -146.1,-85.2 a 67,67 0 0 0 60.4,87.7 c 1.7,0.3 67.3,0 84.9,-0.1 0.5,-0.1 0.9,-0.3 1.2,-0.7 m 7.5,-230 c -4.9,0.4 -18.2,3.5 -18.2,3.5 -30,7.7 -37.1,35 -37.1,35 -5.5,17.1 0.1,36 0.1,36 10,44.4 59.2,117.5 69.8,132.8 0.7,0.8 1.3,0.5 1.3,0.5 0.6,-0.2 1.1,-0.7 1.1,-1.4 16.4,-163.2 -17,-206.4 -17,-206.4 m 37.5,207.6 c 0.6,0.2 1.3,0 1.6,-0.6 10.9,-15.7 59.8,-88.4 69.8,-132.6 0,0 5.4,-21.4 0.2,-36 0,0 -7.4,-27.7 -37.3999995,-35 0,0 -8.6,-2.2 -17.8000005,-3.5 0,0 -33.6,43.2 -17.2,206.4 -0.1,0.6 0.3,1.1 0.8,1.3 m 26.8000005,31.599999 a 2,2 0 0 0 -1.3,0.9 c -0.1,0.6 0,1.1 0.4,1.5 10.8,7.8 43.6999995,30.8 59.4999995,35.2 0,0 29.3,10 54.7,-33.7 z M 139.54596,-190.56672 c 0,0 -96.2,51.7 -145.9999995,85.3 -0.5,0.4 -0.8,1 -0.6,1.6 0,0 0.5,0.9 1.2,0.9 17.7999995,0 85.1999995,0.1 86.9999995,-0.2 6.7,-0.5 13.3,-2 19.5,-4.5 0,0 24,-7.6 36.4,-34.9 0,0 11.1,-22.2 2.5,-48.2 m -155.1,73.8 c 0.4,0.3 1,0.4 1.5,0.1 16.2000005,-8.1 83.7,-42.4 111.6,-69.7 0,0 17.7,-14.2 18.6,-37.1 2,-31.7 -29.9,-61.1 -29.9,-61.1 0,0 -59,71.5 -102.3,166 a 2,2 0 0 0 0.5,1.8"
     fill="#ce0e2d"
     id="path2" />
</svg>
