<?xml version="1.0" encoding="UTF-8" standalone="no"?>
<!-- Created with Inkscape (http://www.inkscape.org/) -->

<svg
   width="800"
   height="775"
   viewBox="0 0 211.66667 205.05208"
   version="1.1"
   id="svg1"
   xml:space="preserve"
   xmlns="http://www.w3.org/2000/svg"
   xmlns:svg="http://www.w3.org/2000/svg"><defs
     id="defs1" /><rect
     style="fill:#ffffff;fill-opacity:1;stroke-width:0.236143"
     id="rect103"
     width="211.66667"
     height="205.05208"
     x="2.5611553e-06"
     y="1.4518737e-09" /><g
     id="layer1"
     transform="translate(-0.56698686,-0.72209865)"><g
       id="g103"
       transform="translate(212.72119)"><path
         style="fill:#f8981d;fill-opacity:1"
         d="m -163.57436,66.721154 c -1.74625,0.0731 -4.1275,0.0399 -5.29166,-0.0739 -1.16417,-0.11377 -3.16351,-0.40583 -4.44299,-0.64903 -1.27947,-0.2432 -3.48213,-0.83585 -4.89479,-1.31699 -1.41266,-0.48114 -3.58051,-1.35914 -4.81743,-1.9511 -1.23693,-0.59196 -3.20146,-1.69666 -4.36563,-2.45488 -1.16416,-0.75823 -2.8608,-1.97983 -3.77031,-2.714676 -0.90951,-0.73485 -1.65365,-1.49389 -1.65365,-1.68676 0,-0.19287 0.0842,-0.35068 0.18716,-0.35068 0.10294,0 1.74005,0.76644 3.63802,1.70321 1.89798,0.93676 4.50665,2.069436 5.79705,2.517066 1.29041,0.44763 3.49306,1.10737 4.8948,1.4661 1.40173,0.35874 3.67969,0.859 5.06214,1.1117 1.90726,0.34863 3.98139,0.46073 8.59896,0.46475 4.69208,0.004 6.66092,-0.10111 8.59896,-0.45945 1.38245,-0.25562 3.70416,-0.76932 5.15937,-1.14156 1.45521,-0.37224 3.73387,-1.08405 5.0637,-1.58181 1.32982,-0.49775 2.66225,-0.90501 2.96094,-0.90501 0.2987,0 0.63008,0.14075 0.7364,0.31278 0.11693,0.1892 -0.2092,0.66071 -0.82548,1.19344 -0.56033,0.48437 -2.33693,1.53197 -3.948,2.328 -1.61108,0.79603 -4.04455,1.80786 -5.40773,2.24851 -1.36319,0.44065 -3.74444,1.02755 -5.29167,1.30423 -1.54724,0.27667 -4.24191,0.56288 -5.98816,0.63603 z m 22.48102,-2.20215 c -0.21357,0 -0.38831,-0.0497 -0.38831,-0.11034 0,-0.0607 0.41672,-1.3557 0.92604,-2.87778 0.50933,-1.52209 0.92605,-3.01051 0.92605,-3.307596 0,-0.29709 -0.0718,-0.72721 -0.1595,-0.95581 -0.0877,-0.2286 -0.63885,-0.54472 -1.22472,-0.70248 -0.62204,-0.1675 -1.90415,-0.21822 -3.08165,-0.12191 -1.10904,0.0907 -2.28432,0.22075 -2.61174,0.289 -0.39765,0.0829 -0.59531,-0.002 -0.59531,-0.25423 0,-0.20807 0.50601,-0.62254 1.12448,-0.92105 0.61846,-0.29851 1.77034,-0.68064 2.55973,-0.84919 0.78939,-0.16854 2.27836,-0.25233 3.30883,-0.1862 1.03048,0.0661 2.1559,0.27133 2.50096,0.456 0.58605,0.31365 0.61895,0.45156 0.49958,2.0944 -0.0703,0.96726 -0.40222,2.413486 -0.73765,3.213856 -0.33542,0.80036 -1.0708,2.08028 -1.63418,2.84427 -0.56337,0.76398 -1.19905,1.38906 -1.41261,1.38906 z"
         id="path103" /><path
         style="fill:#242f3d;fill-opacity:1"
         d="m -111.26861,60.487031 c -0.50932,0.006 -1.24895,-0.10766 -1.64363,-0.25198 -0.39466,-0.14433 -0.96021,-0.655 -1.25676,-1.13483 -0.39228,-0.63473 -0.53918,-1.32394 -0.53918,-2.52974 0,-1.20287 0.14705,-1.89528 0.53628,-2.52506 0.29496,-0.47725 0.90804,-0.99732 1.36239,-1.15571 0.45436,-0.15839 1.23423,-0.28798 1.73303,-0.28798 0.6496,0 1.12634,0.21943 1.68031,0.77339 0.65169,0.6517 0.7734,0.98478 0.7734,2.11667 v 1.34327 h -2.64584 c -1.64239,0 -2.64582,0.10357 -2.64582,0.27308 0,0.1502 0.16851,0.67639 0.37448,1.16933 0.20596,0.49294 0.64339,1.04017 0.97209,1.21609 0.39034,0.2089 1.18483,0.265 2.29069,0.16173 1.26969,-0.11856 1.66623,-0.0774 1.58575,0.16448 -0.059,0.17742 -0.45467,0.39779 -0.87922,0.48972 -0.42456,0.0919 -1.18864,0.17182 -1.69797,0.17754 z m -0.39687,-4.44572 c 1.08672,0 2.0298,-0.12404 2.12596,-0.27962 0.0951,-0.15379 0.10189,-0.56219 0.0152,-0.90754 -0.0867,-0.34536 -0.34452,-0.81484 -0.57298,-1.0433 -0.22846,-0.22845 -0.7971,-0.41537 -1.26365,-0.41537 -0.46655,0 -1.1204,0.19061 -1.45301,0.42357 -0.33259,0.23297 -0.71712,0.71921 -0.8545,1.08054 -0.13738,0.36133 -0.18237,0.76603 -0.1,0.89934 0.0824,0.13331 1.02871,0.24238 2.10294,0.24238 z m 24.729458,4.40613 c -0.81547,0.0833 -1.46845,-0.0273 -2.10758,-0.3568 -0.51838,-0.26727 -1.12969,-0.88512 -1.38865,-1.4035 -0.25444,-0.50932 -0.4628,-1.43588 -0.46302,-2.05902 -2.3e-4,-0.62313 0.16375,-1.52588 0.3644,-2.00609 0.20064,-0.48022 0.69295,-1.13124 1.09401,-1.44671 0.49793,-0.39167 1.09968,-0.57359 1.89729,-0.57359 0.64244,0 1.51734,0.18061 1.94421,0.40135 0.42687,0.22074 0.95674,0.75061 1.17749,1.17749 0.23916,0.46249 0.40135,1.47798 0.40135,2.51294 0,1.59435 -0.0713,1.8146 -0.86898,2.68505 -0.68781,0.75053 -1.11532,0.97338 -2.05052,1.06888 z m -0.44544,-0.73799 c 0.11382,0.0198 0.60372,-0.12976 1.08868,-0.33239 0.59768,-0.24973 0.97851,-0.64601 1.18212,-1.2301 0.16522,-0.47394 0.30039,-1.20494 0.30039,-1.62446 0,-0.41952 -0.16851,-1.16608 -0.37447,-1.65902 -0.20597,-0.49293 -0.61486,-1.02489 -0.90865,-1.18212 -0.2938,-0.15724 -0.83406,-0.28588 -1.20058,-0.28588 -0.36652,0 -0.96161,0.1345 -1.32243,0.2989 -0.36081,0.1644 -0.79782,0.64125 -0.97114,1.05967 -0.17632,0.42567 -0.26216,1.39936 -0.19489,2.21054 0.0725,0.87455 0.3064,1.65549 0.58945,1.96826 0.25807,0.28516 0.72468,0.56845 1.0369,0.62952 0.31223,0.0611 0.66081,0.12726 0.77462,0.14708 z m -35.131928,0.56519 c -0.33388,0 -0.39687,-0.58796 -0.39687,-3.70416 0,-2.86293 0.0781,-3.70417 0.34395,-3.70417 0.18918,0 0.47316,0.12919 0.63106,0.2871 0.20641,0.20641 0.51504,0.16923 1.09811,-0.13229 0.44606,-0.23067 1.26668,-0.41939 1.82362,-0.41939 0.55693,0 1.27721,0.18534 1.60063,0.41187 0.55616,0.38955 0.58804,0.59754 0.58804,3.83646 0,2.86769 -0.0645,3.42458 -0.39687,3.42458 -0.32823,0 -0.39688,-0.49322 -0.39688,-2.85154 0,-2.21254 -0.0971,-2.99012 -0.43312,-3.46991 -0.37124,-0.53002 -0.59748,-0.59984 -1.58368,-0.48868 -0.63281,0.0713 -1.44994,0.32585 -1.81584,0.56559 -0.64377,0.42182 -0.66527,0.52981 -0.66527,3.34023 0,2.40522 -0.0682,2.90431 -0.39688,2.90431 z m 18.37458,-0.0538 c -0.91081,0.0594 -1.31408,-0.0425 -1.65364,-0.4177 -0.36332,-0.40147 -0.44907,-1.03538 -0.44907,-3.31966 v -2.82344 h -0.66146 c -0.41158,0 -0.66146,-0.14993 -0.66146,-0.39687 0,-0.24695 0.24988,-0.39688 0.66146,-0.39688 0.55444,0 0.66146,-0.12491 0.66146,-0.77211 0,-0.42466 0.0723,-0.96044 0.1606,-1.19062 0.0883,-0.23019 0.26007,-0.41852 0.38166,-0.41852 0.12158,0 0.25767,0.50602 0.30242,1.12448 l 0.0814,1.12448 1.27375,0.0813 c 0.8405,0.0537 1.23845,0.18866 1.16995,0.39687 -0.0571,0.17355 -0.66006,0.35183 -1.33991,0.39619 l -1.23608,0.0806 0.004,2.3006 c 0.002,1.26534 0.0738,2.56226 0.15952,2.88204 0.1237,0.46132 0.38258,0.59796 1.25316,0.66146 0.60348,0.044 1.09725,0.19909 1.09725,0.34461 0,0.14552 -0.54206,0.29991 -1.20458,0.3431 z m 4.660358,0.0538 c -0.20947,0 -0.839158,-1.3869 -1.571888,-3.46216 -0.67234,-1.90419 -1.22243,-3.57107 -1.22243,-3.70417 0,-0.1331 0.20836,-0.24015 0.46302,-0.2379 0.35694,0.003 0.67048,0.66994 1.36858,2.91042 0.498068,1.59847 0.979798,2.90631 1.070508,2.90631 0.0907,0 0.51117,-1.30968 0.93435,-2.91041 0.69148,-2.61561 0.82981,-2.91042 1.36569,-2.91042 0.50849,0 0.67269,0.26293 1.11532,1.78594 0.28547,0.98226 0.68441,2.38125 0.88654,3.10885 l 0.36751,1.32292 1.0097,-3.04271 c 0.55533,-1.67349 1.10355,-3.14544 1.21827,-3.27101 0.11471,-0.12556 0.33264,-0.15162 0.48429,-0.0579 0.17595,0.10875 -0.18678,1.48378 -1.00249,3.80018 -1.0273,2.91726 -1.37553,3.62977 -1.77402,3.62977 -0.36948,0 -0.61166,-0.37078 -0.9505,-1.45521 -0.25008,-0.80036 -0.64805,-2.14865 -0.88437,-2.99618 -0.23633,-0.84754 -0.48208,-1.48859 -0.5461,-1.42456 -0.064,0.064 -0.46009,1.31877 -0.88013,2.78832 -0.42003,1.46954 -0.83991,2.7952 -0.93305,2.94591 -0.0931,0.15071 -0.3266,0.27401 -0.5188,0.27401 z m 18.01957,0 c -0.19403,0 -0.43215,-0.0794 -0.52917,-0.17639 -0.097,-0.097 -0.17639,-1.76388 -0.17639,-3.70416 0,-3.35139 0.0265,-3.52778 0.52917,-3.52778 0.30255,0 0.52917,0.17639 0.52917,0.41188 0,0.37278 0.0558,0.37278 0.58804,0 0.32342,-0.22653 0.97826,-0.41188 1.4552,-0.41188 0.59443,0 0.86717,0.12482 0.86717,0.39688 0,0.27205 -0.27274,0.39687 -0.86717,0.39687 -0.47694,0 -1.13178,0.18535 -1.4552,0.41188 -0.54675,0.38295 -0.58804,0.61519 -0.58804,3.30729 0,2.23646 -0.0803,2.89541 -0.35278,2.89541 z m 4.96259,0 c -0.2162,0 -0.45154,-0.15233 -0.52299,-0.33852 -0.0714,-0.18619 -0.0975,-2.6552 -0.0578,-5.48668 0.0652,-4.65933 0.11603,-5.1566 0.53508,-5.23712 0.42114,-0.0809 0.46302,0.21193 0.46302,3.23771 0,1.82969 0.0702,3.3267 0.15602,3.3267 0.0858,0 0.88948,-0.65431 1.78594,-1.45402 0.89645,-0.79971 1.83828,-1.45456 2.09294,-1.45521 0.25466,-6.5e-4 0.45551,0.0881 0.44634,0.19725 -0.009,0.10914 -0.78201,0.85328 -1.71742,1.65364 -0.9354,0.80037 -1.7018,1.53225 -1.70311,1.6264 -0.001,0.0941 0.83106,0.91009 1.84971,1.81319 1.01865,0.90309 1.85208,1.74879 1.85208,1.87933 0,0.13053 -0.19388,0.23733 -0.43084,0.23733 -0.23697,0 -1.27877,-0.80061 -2.31511,-1.77913 l -1.88426,-1.77913 -0.0782,1.77913 c -0.0599,1.36234 -0.17032,1.77913 -0.47132,1.77913 z m -109.096128,-9.00787 c -0.52258,-0.006 -1.42639,-0.17883 -2.00847,-0.3832 -0.58208,-0.20437 -1.43109,-0.79787 -1.88667,-1.31888 -0.45559,-0.52101 -0.90207,-1.31596 -0.99219,-1.76654 -0.0901,-0.45059 -0.16385,-1.24303 -0.16385,-1.76097 0,-0.51795 0.24231,-1.44228 0.53847,-2.05406 0.29616,-0.61179 0.98077,-1.41049 1.52136,-1.7749 0.54058,-0.36441 1.4486,-0.81 2.01782,-0.9902 0.65562,-0.20756 1.81928,-0.27592 3.175,-0.18651 1.17703,0.0776 2.34842,0.225 2.60308,0.32752 0.40837,0.16438 0.46302,0.01 0.46302,-1.31027 0,-0.82316 -0.16966,-1.82475 -0.37703,-2.22576 -0.20737,-0.401 -0.68922,-0.87134 -1.07078,-1.04519 -0.38157,-0.17385 -1.38999,-0.3161 -2.24094,-0.3161 -0.85094,0 -2.33604,0.24366 -3.30021,0.54146 -0.96418,0.2978 -1.86969,0.46937 -2.01225,0.38126 -0.14256,-0.0881 -0.25921,-0.55531 -0.25921,-1.03823 0,-0.48291 0.16179,-1.0123 0.35953,-1.17641 0.19774,-0.16411 1.04982,-0.53587 1.89351,-0.82615 1.07623,-0.37027 2.21245,-0.52603 3.80766,-0.52195 1.64214,0.004 2.56764,0.14148 3.33201,0.49426 0.58209,0.26865 1.3183,0.77205 1.63602,1.11867 0.31773,0.34662 0.72763,0.98741 0.91089,1.42397 0.20396,0.48589 0.39662,2.74349 0.49674,5.82083 0.11282,3.46776 0.28167,5.30141 0.54433,5.91147 0.37017,0.85975 0.35867,0.90208 -0.41298,1.52003 -0.43656,0.34962 -1.05193,0.63626 -1.36748,0.63698 -0.3715,8.5e-4 -0.77622,-0.32631 -1.14819,-0.92818 l -0.57446,-0.92949 -1.04208,0.82534 c -0.57314,0.45393 -1.59342,0.99127 -2.26729,1.19407 -0.67387,0.20281 -1.65279,0.36351 -2.17536,0.35713 z m 1.35074,-2.75392 c 0.6834,-0.0641 1.6114,-0.30733 2.06222,-0.54046 0.45082,-0.23313 1.05209,-0.80504 1.33616,-1.27092 0.29417,-0.48247 0.5169,-1.32336 0.51746,-1.9537 7.4e-4,-0.82731 -0.11589,-1.14031 -0.46203,-1.24 -0.25466,-0.0733 -1.05833,-0.15626 -1.78594,-0.18426 -0.7276,-0.028 -1.70799,-0.0356 -2.17864,-0.0168 -0.5292,0.0211 -1.17395,0.31848 -1.68972,0.77933 -0.67206,0.60048 -0.83401,0.9504 -0.83401,1.80206 0,0.58128 0.14309,1.32423 0.31796,1.65099 0.17488,0.32676 0.57807,0.70576 0.89598,0.84221 0.31791,0.13646 1.13716,0.19564 1.82056,0.13152 z m 38.97412,2.59932 c -0.87312,0.0719 -2.24109,0.0165 -3.03992,-0.12305 -0.79883,-0.13958 -1.8704,-0.46993 -2.38125,-0.7341 -0.81362,-0.42073 -0.93912,-0.62082 -1.01177,-1.61306 -0.0815,-1.11279 -0.0698,-1.13028 0.66145,-0.99318 0.40943,0.0768 1.39925,0.32809 2.19962,0.55852 0.80036,0.23043 1.93146,0.41972 2.51354,0.42063 0.58208,9.2e-4 1.50594,-0.12264 2.05302,-0.27457 0.54708,-0.15193 1.18081,-0.56029 1.40829,-0.90746 0.22748,-0.34718 0.37518,-0.96251 0.32823,-1.36739 -0.0552,-0.47618 -0.38435,-0.93694 -0.93197,-1.30469 -0.46563,-0.31269 -1.89297,-0.89477 -3.17186,-1.29351 -1.88015,-0.5862 -2.53675,-0.93647 -3.43009,-1.8298 -0.72751,-0.72751 -1.16784,-1.44076 -1.28935,-2.08848 -0.1015,-0.54101 -0.10588,-1.40291 -0.01,-1.91535 0.0961,-0.51243 0.55485,-1.36456 1.01937,-1.89362 0.46451,-0.52905 1.32184,-1.17874 1.90517,-1.44374 0.71028,-0.32267 1.69921,-0.48374 2.99396,-0.48763 1.06335,-0.003 2.46542,0.12816 3.11572,0.29191 0.69322,0.17456 1.39844,0.57242 1.70466,0.96172 0.28727,0.3652 0.52049,0.79678 0.51826,0.95905 -0.002,0.16228 -0.11351,0.46808 -0.24729,0.67955 -0.21115,0.33378 -0.43182,0.32506 -1.67285,-0.0661 -0.78629,-0.24785 -2.10967,-0.45065 -2.94085,-0.45065 -0.83118,0 -1.84809,0.17419 -2.25979,0.38709 -0.4117,0.2129 -0.82251,0.57983 -0.9129,0.81539 -0.0904,0.23557 -0.16436,0.70564 -0.16436,1.0446 0,0.34963 0.31879,0.88407 0.73674,1.23513 0.4052,0.34036 1.86196,0.97602 3.23725,1.41259 1.97939,0.62832 2.72939,1.01431 3.59866,1.85208 0.81545,0.78589 1.14573,1.3464 1.283,2.17733 0.11192,0.6775 0.0572,1.51262 -0.13879,2.11666 -0.178,0.54872 -0.56423,1.34038 -0.85828,1.75924 -0.29404,0.41885 -1.14072,1.03665 -1.8815,1.37287 -0.74078,0.33623 -2.06124,0.67016 -2.93437,0.74207 z m -23.85144,-0.36296 c -1.24713,0 -1.45879,-0.0774 -1.66021,-0.60718 -0.12697,-0.33395 -1.21359,-3.8921 -2.41472,-7.90699 -1.20112,-4.0149 -2.11006,-7.49214 -2.01986,-7.7272 0.11345,-0.29565 0.49275,-0.42738 1.23064,-0.42738 0.66718,0 1.24004,0.17464 1.52966,0.46631 0.28823,0.29029 1.00915,2.68735 1.90976,6.35 0.79571,3.23603 1.52407,5.88369 1.61858,5.88369 0.0945,0 0.28932,-0.56554 0.4329,-1.25677 0.14359,-0.69122 0.76503,-3.39989 1.38099,-6.01927 0.69904,-2.97263 1.27945,-4.8868 1.54437,-5.09323 0.23344,-0.1819 0.85517,-0.33073 1.38162,-0.33073 0.52646,0 1.15533,0.14883 1.39749,0.33073 0.2953,0.22183 0.92212,2.37115 1.90358,6.52733 0.80482,3.40812 1.49951,6.23279 1.54375,6.27704 0.0443,0.0443 0.77566,-2.62516 1.62536,-5.93201 0.8497,-3.30685 1.65071,-6.22082 1.78001,-6.47548 0.18066,-0.35581 0.5699,-0.46302 1.681,-0.46302 0.79524,0 1.4459,0.09 1.4459,0.19995 0,0.10998 -1.07899,3.64883 -2.39774,7.86412 -1.31876,4.21529 -2.52397,7.81624 -2.67823,8.00213 -0.16426,0.19791 -0.87282,0.33796 -1.70985,0.33796 -1.23999,0 -1.45884,-0.0789 -1.65185,-0.59531 -0.12237,-0.32742 -0.79556,-3.03609 -1.49597,-6.01927 -0.70042,-2.98318 -1.3484,-5.51421 -1.43997,-5.62452 -0.0916,-0.11031 -0.79528,2.44953 -1.5638,5.68854 -0.76853,3.23901 -1.52034,6.03793 -1.67069,6.21983 -0.15707,0.19004 -0.88142,0.33073 -1.70272,0.33073 z m 46.7379,-3.96875 c -0.51102,0 -0.52916,-0.17639 -0.52916,-5.14376 0,-3.54277 0.0932,-5.20135 0.29942,-5.32881 0.16468,-0.10178 0.40872,0.0103 0.54231,0.24896 0.21936,0.39198 0.31723,0.39558 1.01036,0.0371 0.4221,-0.21828 1.24049,-0.39687 1.81863,-0.39687 0.73593,0 1.28751,0.19886 1.83923,0.66311 0.52526,0.44197 0.89008,1.0884 1.09401,1.93845 0.23117,0.96362 0.23142,1.57134 10e-4,2.48632 -0.16771,0.66603 -0.62111,1.51081 -1.00756,1.87729 -0.38645,0.36649 -1.11935,0.74045 -1.62867,0.83103 -0.65448,0.1164 -1.21701,0.0145 -1.91823,-0.34764 l -0.99219,-0.51235 v 1.82356 c 0,1.64718 -0.0512,1.82357 -0.52917,1.82357 z m 2.837,-3.70416 c 0.76815,0 1.29702,-0.16527 1.64616,-0.51441 0.28293,-0.28293 0.59508,-0.94442 0.69368,-1.47 0.0986,-0.52557 0.10926,-1.39541 0.0237,-1.93298 -0.0927,-0.58215 -0.43265,-1.21815 -0.84072,-1.57272 -0.37683,-0.32742 -0.97999,-0.59531 -1.34035,-0.59531 -0.36036,0 -1.0681,0.17252 -1.57275,0.38337 l -0.91754,0.38338 v 2.24745 c 0,2.02253 0.0589,2.28868 0.58804,2.65934 0.32342,0.22653 1.09732,0.41188 1.71979,0.41188 z m 34.866118,1.04166 c -0.29104,-0.002 -0.88635,-0.16171 -1.32291,-0.35441 -0.43657,-0.19271 -1.02848,-0.61351 -1.31537,-0.93512 -0.38029,-0.42632 -0.54906,-1.07039 -0.6229,-2.3772 -0.0733,-1.29647 0.0174,-2.02196 0.32766,-2.62192 0.23592,-0.45621 0.7782,-1.01008 1.20507,-1.23083 0.42687,-0.22074 1.26745,-0.40135 1.86796,-0.40135 0.85863,0 1.26015,0.16833 1.87995,0.78812 0.6887,0.6887 0.77792,0.94738 0.70725,2.05052 l -0.0809,1.2624 -2.60589,0.076 -2.60588,0.076 0.1764,0.71771 c 0.097,0.39474 0.34604,0.98003 0.55337,1.30065 0.22176,0.34295 0.78187,0.65891 1.36047,0.76746 0.54094,0.10148 1.43755,0.0633 1.99248,-0.0848 0.6197,-0.16541 1.06786,-0.17399 1.16164,-0.0222 0.084,0.13588 0.0907,0.30908 0.0149,0.38488 -0.0758,0.0758 -0.59374,0.24364 -1.15097,0.37296 -0.55724,0.12932 -1.25128,0.23332 -1.54232,0.23109 z m -0.29326,-4.48125 c 2.21846,0 2.27764,-0.0163 2.27764,-0.62577 0,-0.34418 -0.24677,-0.93949 -0.54837,-1.32292 -0.3987,-0.50686 -0.79186,-0.69714 -1.44046,-0.69714 -0.55132,0 -1.14657,0.2274 -1.55833,0.59531 -0.36644,0.32742 -0.74317,0.92274 -0.83719,1.32292 l -0.17093,0.7276 z m -27.487988,4.21592 c -0.58209,7.3e-4 -1.27329,-0.12373 -1.53601,-0.27657 -0.26273,-0.15284 -0.58719,-0.56589 -0.72102,-0.91788 -0.13382,-0.35199 -0.16941,-1.00952 -0.0791,-1.46118 0.10467,-0.52338 0.46211,-1.00925 0.98559,-1.33974 0.66172,-0.41777 1.11705,-0.49038 2.34271,-0.37361 1.51987,0.14481 1.52135,0.14424 1.52135,-0.58587 0,-0.40195 -0.18535,-0.99544 -0.41188,-1.31886 -0.30523,-0.43578 -0.67757,-0.58804 -1.43798,-0.58804 -0.56436,0 -1.33151,0.11612 -1.70478,0.25803 -0.57764,0.21962 -0.67868,0.18483 -0.67868,-0.23372 0,-0.28631 0.2487,-0.55841 0.59531,-0.6513 0.32742,-0.0877 1.20719,-0.16116 1.95505,-0.16315 0.91067,-0.002 1.54372,0.14931 1.91678,0.45941 0.50813,0.42237 0.55936,0.74928 0.58346,3.72329 0.0145,1.79314 -0.0541,3.34077 -0.15248,3.43916 -0.0984,0.0984 -0.32236,-0.0173 -0.49769,-0.25707 -0.27777,-0.37987 -0.40268,-0.38953 -0.97056,-0.0751 -0.35847,0.19848 -1.12801,0.36147 -1.71009,0.3622 z m 0.066,-0.77633 c 0.48745,0 1.23754,-0.18165 1.66688,-0.40367 0.6285,-0.32501 0.78061,-0.57621 0.78061,-1.2891 0,-0.82587 -0.07,-0.89663 -1.04042,-1.0518 -0.57223,-0.0915 -1.37348,-0.0397 -1.78055,0.11502 -0.40707,0.15477 -0.83002,0.42278 -0.9399,0.59558 -0.10987,0.1728 -0.20159,0.55825 -0.20382,0.85657 -0.002,0.29832 0.13882,0.68527 0.31345,0.8599 0.17462,0.17462 0.71631,0.3175 1.20375,0.3175 z m 6.01936,0.79375 c -0.33453,0 -0.39687,-0.60267 -0.39687,-3.83646 0,-2.6002 0.0932,-3.83646 0.28935,-3.83646 0.15915,0 0.34703,0.22055 0.41753,0.49012 0.12476,0.4771 0.15369,0.4771 1.0895,0 0.52874,-0.26957 1.17429,-0.49012 1.43456,-0.49012 0.29684,0 0.47323,0.19724 0.47323,0.52917 0,0.42153 -0.17639,0.52916 -0.86717,0.52916 -0.47695,0 -1.13179,0.18535 -1.45521,0.41188 -0.54675,0.38296 -0.58804,0.61519 -0.58804,3.30729 0,2.39731 -0.0683,2.89542 -0.39688,2.89542 z m 7.526688,-0.0538 c -0.91082,0.0594 -1.314098,-0.0425 -1.653648,-0.41771 -0.36332,-0.40146 -0.44908,-1.03538 -0.44908,-3.31966 v -2.82344 h -0.66146 c -0.41157,0 -0.66145,-0.14993 -0.66145,-0.39687 0,-0.24106 0.24601,-0.39688 0.62662,-0.39688 0.53312,0 0.64824,-0.16117 0.7715,-1.08018 0.0797,-0.5941 0.2065,-1.14181 0.28182,-1.21712 0.0753,-0.0753 0.26392,-0.0585 0.41912,0.0375 0.1552,0.0959 0.282188,0.64362 0.282188,1.21712 0,1.04012 0.003,1.04272 1.05833,1.04272 0.76436,0 1.05834,0.11024 1.05834,0.39687 0,0.28663 -0.29398,0.39688 -1.05834,0.39688 h -1.05833 v 2.8952 2.89521 l 1.12448,0.0814 c 0.61846,0.0447 1.12448,0.20042 1.12448,0.34594 0,0.14552 -0.54206,0.29991 -1.20457,0.34309 z m 3.05665,0.0538 c -0.3338,0 -0.39687,-0.58623 -0.39687,-3.68856 0,-2.45975 0.0997,-3.7502 0.29942,-3.8736 0.16468,-0.10178 0.40485,0.003 0.5337,0.23357 0.20858,0.37271 0.33442,0.37679 1.14729,0.0371 0.50215,-0.20981 1.43416,-0.38148 2.07112,-0.38148 0.78595,0 1.29884,0.15549 1.596,0.48386 0.35896,0.39664 0.43788,1.08812 0.43788,3.83646 0,2.8037 -0.065,3.3526 -0.39687,3.3526 -0.32823,0 -0.39688,-0.49323 -0.39688,-2.85155 0,-2.21253 -0.0971,-2.99011 -0.43311,-3.4699 -0.37125,-0.53003 -0.59749,-0.59984 -1.58369,-0.48868 -0.63281,0.0713 -1.44994,0.32584 -1.81584,0.56559 -0.64376,0.42181 -0.66527,0.5298 -0.66527,3.34022 0,2.40523 -0.0682,2.90432 -0.39688,2.90432 z m 16.13959,0 c -0.33453,0 -0.39688,-0.60267 -0.39688,-3.83646 0,-2.6002 0.0932,-3.83646 0.28935,-3.83646 0.15915,0 0.34703,0.22055 0.41753,0.49012 0.12476,0.4771 0.1537,0.4771 1.0895,0 0.52874,-0.26957 1.17429,-0.49012 1.43457,-0.49012 0.29683,0 0.47322,0.19724 0.47322,0.52917 0,0.42153 -0.17639,0.52916 -0.86717,0.52916 -0.47695,0 -1.13179,0.18535 -1.45521,0.41188 -0.54675,0.38296 -0.58804,0.61519 -0.58804,3.30729 0,2.39731 -0.0683,2.89542 -0.39687,2.89542 z"
         id="path103-76" /><path
         style="fill:#545d66;fill-opacity:1"
         d="m -113.81828,172.39435 c -1.62336,0.0858 -2.44252,-0.005 -3.51482,-0.38848 -0.76898,-0.27521 -1.69067,-0.77519 -2.04818,-1.11106 -0.35752,-0.33586 -0.8976,-1.12208 -1.20018,-1.74714 -0.30259,-0.62505 -0.65609,-1.88521 -0.78555,-2.80034 -0.14338,-1.01345 -0.1356,-2.36811 0.0199,-3.46538 0.14041,-0.99082 0.44691,-2.18145 0.68112,-2.64583 0.23421,-0.46439 0.73966,-1.18239 1.12323,-1.59556 0.38357,-0.41318 1.01887,-0.91917 1.41178,-1.12444 0.39291,-0.20527 1.31227,-0.50144 2.04302,-0.65815 0.97184,-0.20843 1.72571,-0.20251 2.80727,0.022 0.95127,0.19748 1.79709,0.58658 2.37157,1.09098 0.5343,0.46912 1.06458,1.30074 1.32025,2.07048 0.26493,0.79765 0.39712,1.92396 0.34789,2.96423 l -0.0794,1.67777 -5.22551,0.0717 -5.22552,0.0717 0.001,0.72201 c 8.1e-4,0.3971 0.13339,1.19826 0.29461,1.78034 0.16123,0.58209 0.53574,1.39963 0.83225,1.81677 0.29651,0.41714 1.02714,0.98007 1.62362,1.25096 0.66667,0.30277 1.7002,0.49476 2.68256,0.49834 0.87893,0.003 2.28372,-0.17279 3.12175,-0.39107 0.83804,-0.21828 1.57743,-0.39687 1.64309,-0.39687 0.0657,0 0.11939,0.28473 0.11939,0.63273 0,0.49666 -0.24183,0.73053 -1.12448,1.08752 -0.61847,0.25014 -2.07698,0.50515 -3.24114,0.56669 z m -1.45521,-8.90153 h 4.49791 v -1.06683 c 0,-0.58676 -0.16417,-1.45973 -0.36481,-1.93995 -0.20065,-0.48022 -0.68898,-1.12811 -1.08518,-1.43976 -0.3962,-0.31165 -1.12578,-0.64269 -1.62132,-0.73566 -0.49553,-0.093 -1.46101,-0.085 -2.14551,0.0176 -0.93935,0.14087 -1.4833,0.42539 -2.21814,1.16023 -0.53548,0.53547 -1.10506,1.44715 -1.26575,2.02595 -0.16069,0.57881 -0.29283,1.26073 -0.29364,1.51539 -0.001,0.42288 0.38854,0.46302 4.49644,0.46302 z m -54.45725,8.73026 c -1.25672,-7e-4 -1.99584,-0.14252 -2.56046,-0.49128 -0.43656,-0.26966 -1.02847,-0.75421 -1.31536,-1.07678 -0.37938,-0.42655 -0.54796,-1.06819 -0.61821,-2.35298 -0.0825,-1.50982 -0.006,-1.90107 0.52376,-2.69255 0.34118,-0.50932 1.15515,-1.20207 1.80882,-1.53944 1.05583,-0.54494 1.4543,-0.59949 3.56974,-0.48873 1.30969,0.0686 2.64914,0.20967 2.97657,0.31354 0.58214,0.18467 0.59531,0.14381 0.59531,-1.84674 0,-1.8851 -0.0557,-2.09132 -0.75394,-2.78953 -0.42986,-0.42986 -1.19754,-0.8373 -1.78594,-0.94787 -0.59907,-0.11258 -1.80896,-0.0514 -2.88408,0.14594 -1.01865,0.18693 -2.17951,0.39802 -2.57969,0.46909 -0.60945,0.10823 -0.7276,0.0362 -0.7276,-0.44348 0,-0.41157 0.27881,-0.68919 0.99097,-0.98675 0.54504,-0.22773 1.80169,-0.52641 2.79257,-0.66372 1.23897,-0.1717 2.25236,-0.15608 3.24501,0.05 0.79387,0.16481 1.77844,0.58156 2.18793,0.92613 0.4095,0.34456 0.88456,1.09383 1.05569,1.66503 0.1969,0.65719 0.31116,3.14049 0.31116,6.76255 v 5.72399 h -0.79375 c -0.70109,0 -0.79375,-0.0904 -0.79375,-0.77415 v -0.77414 l -1.73902,0.90644 c -1.47465,0.76864 -2.00758,0.90628 -3.50573,0.90544 z m 0.74683,-1.50156 c 0.65485,-0.0698 1.87524,-0.43132 2.71198,-0.80348 l 1.52136,-0.67665 v -1.91993 c 0,-1.50775 -0.09,-1.95446 -0.41908,-2.08075 -0.23049,-0.0884 -1.21276,-0.23375 -2.18281,-0.32288 -1.01037,-0.0928 -2.22316,-0.0375 -2.8393,0.12953 -0.59156,0.16038 -1.35678,0.59094 -1.70048,0.95679 -0.47355,0.50407 -0.6296,0.9802 -0.64423,1.96566 -0.0152,1.02124 0.11557,1.44412 0.60888,1.96952 0.34551,0.36798 0.88129,0.72305 1.19063,0.78904 0.30934,0.066 1.09821,0.0629 1.75305,-0.007 z m 25.5323,1.47519 c -0.89686,0.0172 -1.60499,-0.14659 -2.19874,-0.50859 -0.4817,-0.29368 -1.04724,-0.94425 -1.25677,-1.44572 -0.28841,-0.69026 -0.38095,-2.19577 -0.38095,-6.19741 v -5.28567 l -1.25677,-0.0806 c -1.03541,-0.0664 -1.27051,-0.17665 -1.33474,-0.62571 -0.0668,-0.46685 0.12308,-0.58076 1.32292,-0.79375 l 1.40088,-0.24868 0.13229,-1.98437 c 0.127,-1.905 0.15875,-1.98438 0.79375,-1.98438 0.64201,0 0.66373,0.0603 0.73874,2.05052 l 0.0773,2.05052 h 2.23783 2.23783 v 0.79375 0.79375 h -2.24896 -2.24896 v 5.51525 c 0,5.1596 0.0338,5.54579 0.52358,5.98907 0.43416,0.39291 0.84328,0.45096 2.39552,0.3399 l 1.87193,-0.13394 -0.0804,0.68284 c -0.0551,0.46745 -0.28905,0.7404 -0.74187,0.86536 -0.3638,0.10039 -1.25677,0.19395 -1.98437,0.20791 z m -46.10365,-0.2866 -0.8599,0.0829 V 161.7898 151.58657 l 4.16719,0.001 c 2.29195,8.1e-4 4.64305,0.13358 5.22465,0.29504 0.6203,0.17221 1.5101,0.7462 2.15235,1.38846 0.64226,0.64226 1.21626,1.53206 1.38846,2.15235 0.16146,0.58161 0.29423,1.60524 0.29505,2.27475 8.1e-4,0.66951 -0.13403,1.62201 -0.29965,2.11667 -0.16562,0.49466 -0.58924,1.28743 -0.94137,1.76172 -0.35214,0.47428 -1.13937,1.12281 -1.7494,1.44116 -0.94236,0.49178 -1.65521,0.59537 -4.74044,0.68886 l -3.63129,0.11003 -0.0729,4.00505 -0.0729,4.00506 z m 4.5451,-9.78039 c 3.08898,-0.0801 3.65039,-0.16366 4.29947,-0.64008 0.41062,-0.30139 0.95475,-0.95623 1.20919,-1.45521 0.27213,-0.53368 0.46277,-1.49925 0.46302,-2.34505 2.6e-4,-0.90815 -0.19884,-1.8494 -0.54045,-2.55509 -0.35075,-0.72454 -0.85307,-1.26542 -1.42905,-1.53874 -0.6665,-0.31628 -1.72021,-0.42148 -4.22164,-0.42148 h -3.33345 v 4.52388 4.52388 z m 27.40334,9.82977 h -0.79375 v -7.42591 -7.42591 l 0.7276,0.0837 c 0.62594,0.072 0.74609,0.22668 0.8599,1.10679 l 0.13229,1.02307 0.52917,-0.5882 c 0.29104,-0.32351 0.9709,-0.81366 1.51081,-1.08921 0.58398,-0.29806 1.52895,-0.50102 2.33268,-0.50102 1.30975,0 1.34847,0.0217 1.26731,0.70913 -0.0778,0.65905 -0.18475,0.71505 -1.51419,0.79288 -0.93447,0.0547 -1.82725,0.31627 -2.57482,0.75438 -0.62939,0.36885 -1.2656,0.89719 -1.4138,1.1741 -0.15782,0.2949 -0.26945,2.75772 -0.26945,5.94483 v 5.44135 z m 20.90208,0 h -0.79375 v -7.42591 -7.42591 l 0.72761,0.0837 c 0.57149,0.0658 0.74556,0.23984 0.81132,0.81133 0.0461,0.40018 0.12035,0.7276 0.16511,0.7276 0.0448,0 0.60313,-0.2916 1.24082,-0.64801 0.63768,-0.35641 1.87307,-0.83688 2.7453,-1.06773 0.99802,-0.26413 2.03778,-0.35991 2.80495,-0.25838 0.67049,0.0887 1.57299,0.37655 2.00556,0.63961 0.43256,0.26306 0.98531,0.89729 1.22832,1.40941 0.37311,0.78627 0.44185,1.88183 0.44185,7.04269 v 6.11158 h -0.77557 -0.77556 l -0.0843,-5.89949 c -0.0725,-5.07508 -0.14889,-5.99789 -0.54629,-6.60364 -0.27388,-0.41748 -0.90344,-0.83643 -1.54636,-1.02905 -0.84497,-0.25316 -1.4137,-0.25583 -2.57572,-0.0121 -0.82022,0.17205 -2.11865,0.61974 -2.88541,0.99488 l -1.3941,0.68207 v 5.93367 5.93366 z m 32.07651,-0.0491 -0.86411,0.0832 0.0704,-7.35927 0.0704,-7.35927 h 0.66146 c 0.55286,0 0.67507,0.14118 0.74436,0.8599 0.0456,0.47294 0.12294,0.8599 0.17185,0.8599 0.0489,0 0.71613,-0.42207 1.48269,-0.93793 1.24451,-0.83748 1.55195,-0.92957 2.870876,-0.85989 1.30225,0.0688 1.48711,0.1485 1.56165,0.67334 0.0465,0.32742 -0.013,0.60101 -0.13229,0.60797 -0.11926,0.007 -0.85053,0.0679 -1.62505,0.1354 -0.774516,0.0675 -1.727016,0.29752 -2.116676,0.51114 -0.38965,0.21362 -0.94658,0.57431 -1.23762,0.80154 -0.49233,0.38437 -0.53838,0.81294 -0.66146,6.15692 l -0.13229,5.7438 z m 41.477656,-23.94711 c -0.80036,0.0693 -1.81239,0.0736 -2.24895,0.01 -0.43657,-0.064 -1.3593,-0.29867 -2.05052,-0.52156 -1.06243,-0.34258 -1.25678,-0.50902 -1.25678,-1.07629 0,-0.59297 0.0847,-0.65313 0.72761,-0.5171 0.40018,0.0847 1.46774,0.29699 2.37235,0.47182 1.30685,0.25256 1.95757,0.24786 3.16739,-0.0229 1.06698,-0.23878 1.77173,-0.58985 2.35501,-1.17313 0.56965,-0.56965 0.92698,-1.27348 1.13209,-2.22991 0.16485,-0.76864 0.29972,-1.87603 0.29972,-2.46086 v -1.06332 l -0.7276,0.51691 c -0.40018,0.28431 -1.18863,0.70913 -1.75211,0.94406 -0.56978,0.23756 -1.755,0.42714 -2.67036,0.42714 -1.19734,0 -1.95294,-0.16238 -2.77269,-0.59588 -0.61975,-0.32773 -1.46876,-1.07187 -1.88669,-1.65364 -0.41792,-0.58177 -0.95565,-1.82985 -1.19495,-2.7735 -0.28449,-1.12185 -0.3822,-2.22171 -0.2823,-3.17754 0.084,-0.80399 0.33854,-1.98827 0.56556,-2.63173 0.22703,-0.64345 0.71499,-1.56614 1.08437,-2.05042 0.36938,-0.48428 1.14057,-1.11976 1.71375,-1.41218 0.57319,-0.29241 1.56024,-0.60268 2.19345,-0.68947 0.72104,-0.0988 1.69456,1.3e-4 2.60499,0.2648 0.79953,0.23243 1.75913,0.66286 2.13243,0.9565 0.37331,0.29364 0.74098,0.5339 0.81704,0.5339 0.0761,0 0.17635,-0.26789 0.22286,-0.59532 0.0605,-0.42624 0.29118,-0.61909 0.81215,-0.67903 l 0.7276,-0.0837 v 7.90705 c 0,6.18434 -0.0847,8.19133 -0.38854,9.21185 -0.21369,0.71763 -0.74847,1.698 -1.1884,2.17858 -0.43992,0.48058 -1.30687,1.09553 -1.92656,1.36655 -0.61969,0.27102 -1.78155,0.54943 -2.58192,0.61869 z m -0.26458,-8.04696 c 0.21828,0.0141 0.87313,-0.10404 1.45521,-0.26249 0.58208,-0.15845 1.56414,-0.60427 2.18234,-0.99071 l 1.12401,-0.70262 4.7e-4,-4.16183 4.7e-4,-4.16184 -1.38783,-0.79263 c -0.76331,-0.43594 -1.89361,-0.86847 -2.51178,-0.96117 -0.61817,-0.0927 -1.544,-0.0897 -2.0574,0.007 -0.51341,0.0963 -1.33992,0.53198 -1.83669,0.96815 -0.55812,0.49004 -1.07368,1.30624 -1.34936,2.13626 -0.32087,0.96605 -0.41287,1.90984 -0.32763,3.3611 0.0683,1.1631 0.31988,2.44038 0.59389,3.01528 0.26145,0.54857 0.83154,1.25101 1.26685,1.56098 0.43531,0.30996 1.16477,0.65262 1.62102,0.76145 0.45626,0.10883 1.00815,0.2094 1.22643,0.22349 z M -167.1137,142.0429 c -0.66481,-0.0103 -1.67419,-0.18918 -2.24308,-0.39761 -0.56888,-0.20844 -1.42284,-0.67531 -1.89769,-1.0375 -0.47485,-0.36218 -1.19249,-1.33123 -1.59476,-2.15343 -0.56447,-1.15374 -0.75738,-1.99004 -0.84526,-3.66439 -0.0787,-1.49959 0.0161,-2.61657 0.30705,-3.6174 0.23151,-0.79635 0.77053,-1.93053 1.19783,-2.5204 0.45267,-0.6249 1.31133,-1.33559 2.05745,-1.70291 1.01792,-0.50113 1.68752,-0.62722 3.26492,-0.6148 1.49489,0.0118 2.25474,0.15636 3.08043,0.58619 0.60282,0.3138 1.50644,1.05001 2.00804,1.63601 0.50159,0.586 1.04582,1.51284 1.20939,2.05965 0.16358,0.5468 0.37351,1.64903 0.46652,2.4494 0.093,0.80036 0.0409,2.14515 -0.11584,2.9884 -0.15672,0.84326 -0.48672,1.9584 -0.73333,2.47808 -0.2466,0.51969 -0.86444,1.34896 -1.37297,1.84284 -0.53435,0.51895 -1.48497,1.06437 -2.25227,1.29224 -0.73023,0.21685 -1.87162,0.38588 -2.53643,0.37563 z m 0.12425,-1.57921 c 0.87319,0.007 1.74022,-0.195 2.51354,-0.58496 0.82742,-0.41724 1.37841,-0.95146 1.842,-1.78594 0.58797,-1.05833 0.66146,-1.4993 0.66146,-3.96875 0,-2.46944 -0.0735,-2.91041 -0.66146,-3.96875 -0.46359,-0.83448 -1.01458,-1.3687 -1.842,-1.78594 -0.68083,-0.34332 -1.66438,-0.59531 -2.3236,-0.59531 -0.62868,0 -1.58136,0.18314 -2.11706,0.40697 -0.53571,0.22383 -1.20354,0.61078 -1.48408,0.85989 -0.28054,0.24912 -0.72877,0.92918 -0.99606,1.51127 -0.35877,0.78129 -0.48751,1.70121 -0.4918,3.51422 -0.004,1.62995 0.13191,2.78551 0.40369,3.43598 0.22523,0.53904 0.67171,1.26477 0.99219,1.61273 0.32047,0.34796 0.93987,0.79141 1.37643,0.98545 0.43657,0.19403 1.3936,0.35744 2.12675,0.36314 z m 31.64045,1.49646 c -0.96394,0.0483 -2.35218,-0.065 -3.08498,-0.25164 -0.7328,-0.18667 -1.47694,-0.42876 -1.65364,-0.53797 -0.17671,-0.10921 -0.32128,-0.48919 -0.32128,-0.8444 0,-0.35522 0.0893,-0.64456 0.19843,-0.64298 0.10914,0.002 0.78291,0.18017 1.49726,0.39687 0.71435,0.21671 1.9981,0.39401 2.85277,0.39401 0.85467,0 1.95726,-0.16851 2.4502,-0.37447 0.49293,-0.20596 1.02489,-0.61486 1.18212,-0.90865 0.15724,-0.2938 0.28588,-0.93796 0.28588,-1.43149 0,-0.58855 -0.20484,-1.08963 -0.59531,-1.45623 -0.32742,-0.30741 -1.7011,-0.98081 -3.05261,-1.49645 -1.35152,-0.51564 -2.74045,-1.14808 -3.08652,-1.40543 -0.34608,-0.25735 -0.81787,-0.78393 -1.04843,-1.17018 -0.23057,-0.38626 -0.41921,-1.23185 -0.41921,-1.87911 0,-0.7828 0.19962,-1.47304 0.59621,-2.06153 0.32792,-0.4866 1.01253,-1.12928 1.52135,-1.42819 0.70463,-0.41394 1.36661,-0.54 2.77723,-0.52888 1.01865,0.008 2.3581,0.16145 2.97656,0.34093 0.94731,0.27491 1.12448,0.43368 1.12448,1.00763 0,0.66846 -0.0237,0.677 -1.25677,0.45282 -0.69122,-0.12566 -2.0709,-0.22848 -3.06595,-0.22848 -1.65433,0 -1.8638,0.0635 -2.4474,0.74236 -0.41082,0.47786 -0.63821,1.07133 -0.63821,1.66567 0,0.60478 0.20538,1.12865 0.59531,1.51849 0.32742,0.32734 1.71939,1.00654 3.09326,1.50933 1.7039,0.62356 2.8183,1.21653 3.50573,1.86537 0.93017,0.87796 1.00778,1.06344 1.00778,2.40827 0,1.07232 -0.15811,1.69444 -0.5988,2.35607 -0.32934,0.49447 -1.05872,1.12436 -1.62083,1.39976 -0.59319,0.29063 -1.7574,0.53756 -2.77463,0.5885 z m 12.55301,0.0846 c -0.59205,-0.009 -1.37411,-0.13511 -1.73791,-0.27975 -0.36381,-0.14464 -0.98436,-0.57176 -1.37901,-0.94914 -0.45543,-0.4355 -0.82384,-1.17903 -1.00849,-2.03535 -0.17498,-0.81147 -0.25807,-3.4582 -0.20849,-6.64086 l 0.0824,-5.29167 h 0.79375 0.79375 l 0.1323,5.95313 c 0.0878,3.95119 0.24011,6.14111 0.4529,6.51215 0.17634,0.30746 0.68296,0.70911 1.12582,0.89254 0.4692,0.19435 1.40945,0.28342 2.25325,0.21344 0.88563,-0.0734 2.04121,-0.42336 2.97523,-0.90092 l 1.52717,-0.78085 0.0711,-6.01089 0.0711,-6.01089 h 0.78878 0.78878 v 7.42591 7.4259 l -0.7276,-0.0837 c -0.52097,-0.0599 -0.75162,-0.25278 -0.81215,-0.67903 -0.0465,-0.32742 -0.15151,-0.59531 -0.23336,-0.59531 -0.0818,0 -0.52004,0.22677 -0.97378,0.50394 -0.45374,0.27717 -1.47167,0.69388 -2.26207,0.92604 -0.79039,0.23216 -1.92149,0.41456 -2.51354,0.40533 z m -58.62333,-0.2868 c -1.38245,0.002 -3.01073,-0.15187 -3.6184,-0.34188 -0.60767,-0.19 -1.52587,-0.60567 -2.04045,-0.92369 -0.51457,-0.31803 -1.30553,-1.04532 -1.75768,-1.6162 -0.45215,-0.57088 -1.05898,-1.71198 -1.34852,-2.53577 -0.28954,-0.82379 -0.59508,-2.4706 -0.67899,-3.65957 -0.0861,-1.2201 -0.0169,-2.96135 0.15894,-3.99732 0.17132,-1.00955 0.61083,-2.45638 0.97669,-3.21519 0.36586,-0.75881 1.21175,-1.86075 1.87975,-2.44875 0.80279,-0.70664 1.79391,-1.24803 2.92343,-1.59691 1.12137,-0.34635 2.40428,-0.52049 3.73153,-0.50652 1.11246,0.0117 2.55844,0.16054 3.21328,0.33073 1.02382,0.26608 1.20273,0.41524 1.27701,1.06465 l 0.0864,0.75522 -1.4093,-0.22605 c -0.77511,-0.12433 -2.30227,-0.21686 -3.39367,-0.20561 -1.09141,0.0112 -2.41165,0.16296 -2.93388,0.33716 -0.52222,0.17419 -1.3403,0.60504 -1.81795,0.95744 -0.47765,0.3524 -1.15306,1.05956 -1.50091,1.57147 -0.34785,0.51191 -0.82429,1.67921 -1.05874,2.59399 -0.30959,1.20794 -0.38651,2.3151 -0.28097,4.0445 0.0799,1.30969 0.27787,2.82472 0.43989,3.36675 0.16202,0.54203 0.67786,1.48803 1.14632,2.10222 0.46846,0.6142 1.44243,1.42087 2.16437,1.79262 1.13746,0.58571 1.6491,0.67591 3.83402,0.67591 1.38676,0 3.09628,-0.10422 3.79893,-0.2316 l 1.27755,-0.23159 -0.0869,0.76076 c -0.0749,0.65589 -0.25105,0.80342 -1.27755,1.0702 -0.65484,0.17019 -2.32171,0.31105 -3.70416,0.31303 z m 83.552976,-0.0775 c -1.13455,0.0888 -1.93183,0.008 -2.504356,-0.25237 -0.46196,-0.21041 -1.05728,-0.71388 -1.32293,-1.11881 -0.42156,-0.64261 -0.49378,-1.45117 -0.56782,-6.35744 l -0.0848,-5.62119 -1.23809,-0.0799 c -1.03887,-0.067 -1.25126,-0.1723 -1.31989,-0.6542 -0.073,-0.51235 0.0758,-0.59401 1.37846,-0.75677 l 1.46025,-0.18244 0.0768,-2.02136 c 0.0754,-1.98674 0.0892,-2.0228 0.80437,-2.10508 l 0.7276,-0.0837 v 2.12394 2.12394 l 2.312126,0.0764 c 2.01905,0.0668 2.32419,0.13951 2.40728,0.57391 0.0523,0.27361 -0.0654,0.59921 -0.2616,0.72356 -0.19622,0.12435 -1.2795,0.22791 -2.40729,0.23014 l -2.050516,0.004 v 5.42396 c 0,5.17785 0.0255,5.44947 0.562346,5.9863 0.49517,0.49518 0.7796,0.5468 2.38125,0.4322 1.7609,-0.12599 1.8189,-0.11067 1.8189,0.48038 0,0.33578 -0.1142,0.6811 -0.25379,0.76737 -0.13959,0.0863 -1.00279,0.21545 -1.91823,0.28707 z m -57.561876,-0.19718 -0.86412,0.0832 0.0704,-7.35926 0.0704,-7.35927 0.7276,-0.0837 c 0.65747,-0.0756 0.7276,-0.003 0.7276,0.74965 0,0.45836 0.0893,0.78798 0.19844,0.7325 0.10914,-0.0555 0.8646,-0.42288 1.6788,-0.81643 0.81421,-0.39355 2.17129,-0.85431 3.01575,-1.0239 1.18911,-0.23881 1.80922,-0.23511 2.74955,0.0164 0.6678,0.17861 1.43626,0.52573 1.7077,0.77138 0.27144,0.24565 0.65993,0.76842 0.86331,1.16172 0.28595,0.55297 0.36979,2.12775 0.36979,6.94594 v 6.23085 h -0.77992 -0.77993 l -0.08,-6.07993 -0.08,-6.07993 -0.69647,-0.69594 c -0.47655,-0.4762 -1.07568,-0.73868 -1.89748,-0.83131 -0.804,-0.0906 -1.8096,0.0495 -3.04199,0.42381 -1.01254,0.30754 -2.09342,0.76846 -2.40195,1.02426 -0.53649,0.44477 -0.56387,0.71919 -0.62717,6.28591 l -0.0662,5.82083 z m 47.3939,-0.004 c -1.20901,0.0702 -1.42204,-1.9e-4 -1.9213,-0.6349 -0.55316,-0.70322 -0.56049,-0.86596 -0.4923,-10.92687 l 0.0692,-10.21303 h 0.66146 0.66146 l 0.0694,9.89871 c 0.0475,6.76876 0.16228,10.0106 0.36313,10.2526 0.16154,0.19465 0.70413,0.35391 1.20576,0.35391 0.79449,0 0.90115,0.0767 0.8275,0.59531 -0.0734,0.51665 -0.26424,0.60575 -1.44433,0.67427 z m 16.577516,0.0533 h -0.79793 v -7.42591 -7.42591 l 0.7276,0.0837 0.72761,0.0837 0.0703,7.34219 0.0703,7.34219 z m 6.34582,0 h -0.79375 v -7.42591 -7.42591 l 0.7276,0.0837 c 0.56798,0.0654 0.74571,0.24064 0.81013,0.79898 l 0.0825,0.71526 1.52282,-0.77384 c 0.83754,-0.42561 2.15415,-0.90924 2.92579,-1.07472 0.77165,-0.16549 1.87744,-0.22502 2.45733,-0.13229 0.57989,0.0927 1.40839,0.35168 1.84111,0.57545 0.46531,0.24061 0.99211,0.85913 1.28934,1.51378 0.44588,0.98209 0.50322,1.78579 0.50837,7.12621 l 0.006,6.01927 h -0.77174 -0.77175 l -0.0881,-5.88698 c -0.0622,-4.15446 -0.18779,-6.06138 -0.42672,-6.47956 -0.18622,-0.32591 -0.7146,-0.78702 -1.17418,-1.02468 -0.63457,-0.32815 -1.21942,-0.392 -2.43087,-0.26537 -0.90012,0.0941 -2.31962,0.5057 -3.25759,0.94463 l -1.66233,0.7779 v 5.96703 5.96703 z m -6.22433,-18.06046 c -0.2874,0.0349 -0.73091,-0.0603 -0.98557,-0.21158 -0.26696,-0.15861 -0.46302,-0.59191 -0.46302,-1.0233 0,-0.41151 0.17204,-0.89098 0.38231,-1.06549 0.21027,-0.17451 0.64311,-0.27839 0.96187,-0.23084 0.31875,0.0476 0.73752,0.3257 0.9306,0.6181 0.28257,0.42794 0.28719,0.66018 0.0237,1.19062 -0.18004,0.36244 -0.56249,0.68757 -0.84989,0.72249 z m -88.818736,-12.1124 c -0.18658,-0.006 -0.71848,-0.1753 -1.182,-0.3769 -0.46353,-0.2016 -1.02908,-0.72681 -1.25678,-1.16713 -0.23217,-0.44898 -0.41399,-1.45658 -0.41399,-2.29426 0,-0.93289 0.16947,-1.78055 0.45139,-2.25782 0.24827,-0.42028 0.85367,-0.95504 1.34534,-1.18836 0.49167,-0.23331 1.17045,-0.3548 1.5084,-0.26998 0.33795,0.0848 0.80411,0.22699 1.03591,0.31594 0.35935,0.1379 0.42146,-0.0959 0.42146,-1.58637 v -1.7481 h 1.05833 1.05833 v 5.15938 5.15937 h -0.92604 c -0.50932,0 -0.92604,-0.11299 -0.92604,-0.25108 0,-0.1381 -0.41289,-0.0786 -0.91754,0.13229 -0.50465,0.21086 -1.0702,0.37871 -1.25677,0.37302 z m 0.60618,-1.57714 c 0.25658,0 0.65485,-0.0723 0.88503,-0.1606 0.32928,-0.12636 0.41852,-0.57662 0.41852,-2.11163 0,-1.84497 -0.0349,-1.95979 -0.64237,-2.11225 -0.35329,-0.0887 -0.88642,-0.0838 -1.18472,0.0109 -0.34776,0.11037 -0.64432,0.5508 -0.82655,1.22752 -0.1563,0.58046 -0.2044,1.31742 -0.10689,1.63769 0.0975,0.32027 0.36025,0.79066 0.58387,1.04532 0.22362,0.25467 0.61652,0.46303 0.87311,0.46303 z m 14.50225,1.58587 c -0.38056,8.9e-4 -1.00564,-0.24514 -1.38906,-0.54674 -0.53189,-0.41839 -0.69714,-0.78376 -0.69714,-1.54138 0,-0.72571 0.18393,-1.16568 0.68331,-1.63445 0.55504,-0.52103 0.95236,-0.6388 2.11666,-0.62743 1.04338,0.0102 1.43336,-0.0845 1.43336,-0.34813 0,-0.19916 -0.13137,-0.60759 -0.29195,-0.90762 -0.26465,-0.49451 -0.45016,-0.5293 -1.98437,-0.37212 -1.57197,0.16106 -1.69243,0.13587 -1.69243,-0.35383 0,-0.28997 0.25855,-0.6656 0.57456,-0.83472 0.316,-0.16912 1.33224,-0.31462 2.25831,-0.32333 1.39732,-0.0131 1.78344,0.0837 2.26972,0.56942 0.52415,0.52352 0.59533,0.90547 0.67487,3.62131 l 0.0889,3.03606 h -0.94881 c -0.52184,0 -0.94881,-0.112 -0.94881,-0.24889 0,-0.13689 -0.32742,-0.0781 -0.7276,0.13066 -0.40019,0.20876 -1.03897,0.38029 -1.41953,0.38119 z m 0.66545,-1.32129 c 0.16808,0 0.57022,-0.18535 0.89364,-0.41188 0.32342,-0.22653 0.58804,-0.6501 0.58804,-0.94125 0,-0.45903 -0.14913,-0.51857 -1.1222,-0.44802 -0.831,0.0602 -1.14562,0.2048 -1.21247,0.55709 -0.0497,0.26165 0.0532,0.6486 0.22855,0.85989 0.17536,0.21129 0.45635,0.38417 0.62444,0.38417 z m 17.31248,1.16975 c -0.63053,0.059 -1.39791,0.052 -1.70529,-0.0157 -0.30738,-0.0677 -0.89508,-0.47392 -1.30601,-0.90284 -0.60308,-0.62948 -0.76871,-1.07785 -0.85893,-2.32521 -0.0789,-1.09068 0.0148,-1.79004 0.3183,-2.37704 0.23655,-0.45743 0.791,-1.01832 1.2321,-1.24643 0.50903,-0.26323 1.30481,-0.38568 2.17834,-0.33521 1.28179,0.0741 1.38207,0.1295 1.46004,0.80714 0.0815,0.70843 0.0486,0.7276 -1.24747,0.7276 -1.04531,0 -1.39,0.1099 -1.60507,0.51177 -0.15064,0.28148 -0.27389,1.05264 -0.27389,1.7137 0,0.99208 0.1162,1.27806 0.66561,1.63804 0.47954,0.31421 0.96031,0.389 1.71979,0.26756 0.98848,-0.15807 1.05418,-0.12812 1.05418,0.4804 0,0.35693 -0.10919,0.71645 -0.24264,0.79893 -0.13345,0.0825 -0.75853,0.19825 -1.38906,0.25727 z m 6.26191,0.12077 c -0.58208,0.0112 -1.45147,-0.1734 -1.93196,-0.4102 -0.4805,-0.23681 -1.05873,-0.78849 -1.28496,-1.22598 -0.29077,-0.56229 -0.37936,-1.29758 -0.30224,-2.50873 0.0961,-1.50881 0.20563,-1.79956 0.9178,-2.43589 0.44479,-0.39742 1.24845,-0.80507 1.78591,-0.9059 0.70339,-0.13196 1.24966,-0.0494 1.94956,0.29445 0.67967,0.33396 1.08293,0.77298 1.33973,1.45853 0.20207,0.53941 0.29139,1.28355 0.1985,1.65364 -0.16326,0.65048 -0.2392,0.67289 -2.28051,0.67289 -1.92702,0 -2.11162,0.0457 -2.11162,0.52307 0,0.28769 0.30156,0.72066 0.67014,0.96216 0.50855,0.33322 1.02277,0.4027 2.13256,0.28816 1.45758,-0.15044 1.46214,-0.14863 1.38037,0.54873 -0.0568,0.48487 -0.28509,0.7557 -0.74349,0.88219 -0.3638,0.10039 -1.13771,0.19169 -1.71979,0.20288 z m -0.39687,-4.46552 c 1.09753,0 1.32291,-0.0811 1.32291,-0.47625 0,-0.26194 -0.14287,-0.61913 -0.3175,-0.79375 -0.17462,-0.17463 -0.64668,-0.3175 -1.04902,-0.3175 -0.45245,0 -0.83602,0.19524 -1.00542,0.51177 -0.15064,0.28148 -0.27389,0.63866 -0.27389,0.79375 0,0.16199 0.56296,0.28198 1.32292,0.28198 z m 7.67291,4.34729 c -0.54915,0.0957 -1.18487,0.0245 -1.56199,-0.17477 -0.34978,-0.18483 -0.87242,-0.65462 -1.16143,-1.04396 -0.28901,-0.38934 -0.58099,-1.28571 -0.64885,-1.99193 -0.078,-0.81218 0.0246,-1.63829 0.27943,-2.24808 0.22155,-0.53023 0.71602,-1.16929 1.09884,-1.42012 0.38282,-0.25083 1.01784,-0.46589 1.41117,-0.47792 0.39332,-0.012 1.04255,0.0671 1.44273,0.17594 l 0.7276,0.1978 v -1.72484 -1.72483 h 0.92604 0.92605 v 5.15938 5.15937 h -0.92605 c -0.50932,0 -0.92604,-0.13364 -0.92604,-0.29698 0,-0.20696 -0.10025,-0.21413 -0.33073,-0.0237 -0.1819,0.15031 -0.74745,0.34589 -1.25677,0.43461 z m 0.14969,-1.43687 c 0.22785,0 0.64456,-0.12326 0.92604,-0.2739 0.42451,-0.22719 0.51177,-0.56395 0.51177,-1.97506 0,-1.41111 -0.0873,-1.74788 -0.51177,-1.97507 -0.28148,-0.15064 -0.69819,-0.27389 -0.92604,-0.27389 -0.22785,0 -0.6524,0.23812 -0.94344,0.52917 -0.37237,0.37237 -0.52916,0.88194 -0.52916,1.71979 0,0.83784 0.15679,1.34741 0.52916,1.71979 0.29104,0.29104 0.71559,0.52917 0.94344,0.52917 z m -58.39695,1.32291 c -0.75066,0 -1.03847,-0.1 -0.95184,-0.33073 0.0683,-0.1819 0.81162,-2.32502 1.65183,-4.7625 l 1.52765,-4.43177 1.22075,0.003 1.22075,0.003 1.48978,4.29672 c 0.81938,2.3632 1.57626,4.50508 1.68195,4.75974 0.16618,0.40038 0.0329,0.46302 -0.98488,0.46302 -1.14399,0 -1.18596,-0.0297 -1.49414,-1.05833 l -0.31708,-1.05833 h -1.66729 -1.66729 l -0.31709,1.05833 c -0.30238,1.00925 -0.36698,1.05833 -1.3931,1.05833 z m 3.36048,-3.70416 c 0.647,0 1.17636,-0.047 1.17636,-0.10443 0,-0.0574 -0.25315,-0.92063 -0.56257,-1.91823 -0.46781,-1.50829 -0.5986,-1.71751 -0.77648,-1.24212 -0.11765,0.31442 -0.39386,1.17762 -0.61379,1.91823 l -0.39988,1.34655 z m 16.97867,3.70043 c -0.79305,0.003 -1.04612,-0.11887 -1.22882,-0.59158 -0.12655,-0.32742 -0.71891,-1.87636 -1.31637,-3.44208 -0.59745,-1.56572 -1.08628,-2.90517 -1.08628,-2.97656 0,-0.0714 0.4678,-0.1298 1.03956,-0.1298 1.03889,0 1.03983,9.8e-4 1.47313,1.52136 0.23847,0.83674 0.56558,1.97503 0.72691,2.52954 0.19017,0.65363 0.36086,0.88625 0.48535,0.66146 0.10562,-0.1907 0.46048,-1.329 0.78859,-2.52955 l 0.59656,-2.18281 h 1.03622 c 0.71629,0 1.00982,0.10589 0.95068,0.34295 -0.0471,0.18863 -0.62133,1.79429 -1.27617,3.56815 l -1.19062,3.22519 z m 13.29261,0.004 h -1.04908 v -3.57187 -3.57188 h 0.80205 c 0.4597,0 0.86543,0.16516 0.95053,0.38693 0.12819,0.33404 0.23778,0.32842 0.80183,-0.0412 0.35934,-0.23545 1.19222,-0.43934 1.85084,-0.45308 0.9571,-0.02 1.29905,0.10041 1.70341,0.59964 0.432,0.53336 0.50592,1.06494 0.50592,3.63803 v 3.01339 h -1.05833 -1.05834 v -2.61343 c 0,-1.97365 -0.095,-2.69227 -0.38797,-2.93544 -0.26977,-0.22388 -0.61238,-0.24736 -1.12448,-0.077 -0.73402,0.24411 -0.73676,0.25402 -0.81191,2.93543 l -0.0754,2.69049 z"
         id="path103-7" /></g><rect
       style="fill:#232f3d;fill-opacity:1;stroke-width:0.143759"
       id="rect1"
       width="211.66667"
       height="6.6145835"
       x="0.56698686"
       y="0.72209865" /></g></svg>
