<?xml version="1.0" encoding="UTF-8"?>
<svg xmlns="http://www.w3.org/2000/svg" xmlns:xlink="http://www.w3.org/1999/xlink" width="107px" height="64px" viewBox="0 0 106 64" version="1.1">
<g id="surface1">
<path style=" stroke:none;fill-rule:nonzero;fill:rgb(14.509805%,18.431373%,24.313726%);fill-opacity:1;" d="M 30.125 23.347656 C 30.125 24.652344 30.265625 25.707031 30.511719 26.480469 C 30.789062 27.253906 31.136719 28.097656 31.625 29.011719 C 31.800781 29.292969 31.871094 29.574219 31.871094 29.820312 C 31.871094 30.171875 31.660156 30.523438 31.207031 30.875 L 29.011719 32.351562 C 28.695312 32.5625 28.382812 32.667969 28.105469 32.667969 C 27.753906 32.667969 27.40625 32.492188 27.058594 32.175781 C 26.570312 31.648438 26.152344 31.085938 25.800781 30.523438 C 25.453125 29.925781 25.105469 29.257812 24.722656 28.449219 C 22.003906 31.683594 18.585938 33.300781 14.46875 33.300781 C 11.542969 33.300781 9.207031 32.457031 7.496094 30.769531 C 5.789062 29.082031 4.917969 26.832031 4.917969 24.019531 C 4.917969 21.027344 5.960938 18.601562 8.089844 16.773438 C 10.214844 14.945312 13.039062 14.03125 16.632812 14.03125 C 17.816406 14.03125 19.039062 14.136719 20.328125 14.3125 C 21.617188 14.488281 22.945312 14.769531 24.339844 15.085938 L 24.339844 12.519531 C 24.339844 9.847656 23.78125 7.980469 22.699219 6.890625 C 21.582031 5.800781 19.699219 5.273438 17.015625 5.273438 C 15.796875 5.273438 14.539062 5.414062 13.25 5.730469 C 11.960938 6.046875 10.703125 6.433594 9.484375 6.925781 C 8.925781 7.171875 8.507812 7.3125 8.265625 7.382812 C 8.019531 7.453125 7.84375 7.488281 7.707031 7.488281 C 7.21875 7.488281 6.972656 7.136719 6.972656 6.398438 L 6.972656 4.675781 C 6.972656 4.113281 7.042969 3.691406 7.21875 3.445312 C 7.390625 3.199219 7.707031 2.953125 8.195312 2.707031 C 9.414062 2.074219 10.878906 1.546875 12.585938 1.125 C 14.296875 0.667969 16.109375 0.457031 18.027344 0.457031 C 22.175781 0.457031 25.210938 1.40625 27.164062 3.304688 C 29.082031 5.203125 30.054688 8.089844 30.054688 11.957031 L 30.054688 23.347656 Z M 15.96875 28.695312 C 17.121094 28.695312 18.304688 28.484375 19.5625 28.0625 C 20.816406 27.640625 21.933594 26.867188 22.875 25.8125 C 23.429688 25.144531 23.851562 24.40625 24.058594 23.558594 C 24.269531 22.714844 24.40625 21.695312 24.40625 20.5 L 24.40625 19.023438 C 23.398438 18.777344 22.316406 18.566406 21.199219 18.425781 C 20.085938 18.285156 19.003906 18.214844 17.921875 18.214844 C 15.585938 18.214844 13.878906 18.671875 12.726562 19.621094 C 11.578125 20.570312 11.019531 21.90625 11.019531 23.664062 C 11.019531 25.320312 11.4375 26.550781 12.308594 27.394531 C 13.144531 28.273438 14.367188 28.695312 15.96875 28.695312 Z M 43.96875 32.492188 C 43.339844 32.492188 42.921875 32.386719 42.644531 32.140625 C 42.363281 31.929688 42.121094 31.4375 41.910156 30.769531 L 33.71875 3.585938 C 33.507812 2.882812 33.402344 2.425781 33.402344 2.179688 C 33.402344 1.617188 33.683594 1.300781 34.242188 1.300781 L 37.65625 1.300781 C 38.320312 1.300781 38.773438 1.40625 39.019531 1.652344 C 39.296875 1.863281 39.507812 2.355469 39.714844 3.023438 L 45.574219 26.304688 L 51.011719 3.023438 C 51.1875 2.320312 51.394531 1.863281 51.675781 1.652344 C 51.953125 1.441406 52.441406 1.300781 53.070312 1.300781 L 55.859375 1.300781 C 56.523438 1.300781 56.976562 1.40625 57.253906 1.652344 C 57.53125 1.863281 57.777344 2.355469 57.917969 3.023438 L 63.425781 26.585938 L 69.457031 3.023438 C 69.667969 2.320312 69.910156 1.863281 70.15625 1.652344 C 70.433594 1.441406 70.886719 1.300781 71.515625 1.300781 L 74.757812 1.300781 C 75.316406 1.300781 75.628906 1.582031 75.628906 2.179688 C 75.628906 2.355469 75.59375 2.53125 75.558594 2.742188 C 75.523438 2.953125 75.457031 3.234375 75.316406 3.621094 L 66.914062 30.804688 C 66.703125 31.507812 66.460938 31.964844 66.179688 32.175781 C 65.902344 32.386719 65.449219 32.527344 64.855469 32.527344 L 61.855469 32.527344 C 61.195312 32.527344 60.742188 32.421875 60.460938 32.175781 C 60.183594 31.929688 59.9375 31.472656 59.800781 30.769531 L 54.394531 8.089844 L 49.023438 30.734375 C 48.851562 31.4375 48.640625 31.894531 48.363281 32.140625 C 48.082031 32.386719 47.59375 32.492188 46.96875 32.492188 Z M 88.773438 33.441406 C 86.960938 33.441406 85.148438 33.230469 83.40625 32.808594 C 81.660156 32.386719 80.300781 31.929688 79.394531 31.402344 C 78.835938 31.085938 78.453125 30.734375 78.316406 30.417969 C 78.175781 30.101562 78.105469 29.75 78.105469 29.433594 L 78.105469 27.640625 C 78.105469 26.902344 78.382812 26.550781 78.90625 26.550781 C 79.117188 26.550781 79.324219 26.585938 79.535156 26.65625 C 79.742188 26.726562 80.058594 26.867188 80.40625 27.007812 C 81.59375 27.535156 82.882812 27.957031 84.242188 28.238281 C 85.636719 28.519531 86.996094 28.660156 88.390625 28.660156 C 90.589844 28.660156 92.296875 28.273438 93.480469 27.5 C 94.667969 26.726562 95.296875 25.601562 95.296875 24.160156 C 95.296875 23.171875 94.980469 22.363281 94.355469 21.695312 C 93.726562 21.027344 92.539062 20.429688 90.832031 19.867188 L 85.777344 18.285156 C 83.230469 17.476562 81.347656 16.28125 80.199219 14.699219 C 79.046875 13.152344 78.453125 11.429688 78.453125 9.601562 C 78.453125 8.125 78.769531 6.820312 79.394531 5.695312 C 80.023438 4.570312 80.859375 3.585938 81.90625 2.8125 C 82.953125 2.003906 84.136719 1.40625 85.53125 0.984375 C 86.925781 0.5625 88.390625 0.386719 89.925781 0.386719 C 90.691406 0.386719 91.496094 0.421875 92.261719 0.527344 C 93.0625 0.632812 93.796875 0.773438 94.527344 0.914062 C 95.226562 1.089844 95.886719 1.265625 96.515625 1.476562 C 97.144531 1.6875 97.632812 1.898438 97.980469 2.109375 C 98.46875 2.390625 98.816406 2.671875 99.027344 2.988281 C 99.234375 3.269531 99.339844 3.65625 99.339844 4.148438 L 99.339844 5.800781 C 99.339844 6.539062 99.0625 6.925781 98.539062 6.925781 C 98.257812 6.925781 97.804688 6.785156 97.214844 6.503906 C 95.226562 5.589844 92.992188 5.132812 90.519531 5.132812 C 88.53125 5.132812 86.960938 5.449219 85.882812 6.117188 C 84.800781 6.785156 84.242188 7.804688 84.242188 9.25 C 84.242188 10.234375 84.589844 11.078125 85.289062 11.746094 C 85.984375 12.414062 87.277344 13.082031 89.125 13.679688 L 94.074219 15.261719 C 96.585938 16.070312 98.398438 17.195312 99.480469 18.636719 C 100.558594 20.078125 101.082031 21.730469 101.082031 23.558594 C 101.082031 25.074219 100.769531 26.445312 100.175781 27.640625 C 99.550781 28.835938 98.710938 29.890625 97.632812 30.734375 C 96.550781 31.613281 95.261719 32.246094 93.761719 32.703125 C 92.191406 33.195312 90.554688 33.441406 88.773438 33.441406 Z M 88.773438 33.441406 "/>
<path style=" stroke:none;fill-rule:evenodd;fill:rgb(100%,60.000002%,0%);fill-opacity:1;" d="M 95.363281 50.53125 C 83.894531 59.078125 67.226562 63.613281 52.894531 63.613281 C 32.8125 63.613281 14.714844 56.125 1.046875 43.675781 C -0.0351562 42.691406 0.941406 41.355469 2.230469 42.128906 C 17.015625 50.777344 35.253906 56.019531 54.117188 56.019531 C 66.84375 56.019531 80.824219 53.34375 93.691406 47.859375 C 95.609375 46.980469 97.246094 49.125 95.363281 50.53125 Z M 95.363281 50.53125 "/>
<path style=" stroke:none;fill-rule:evenodd;fill:rgb(100%,60.000002%,0%);fill-opacity:1;" d="M 100.140625 45.046875 C 98.675781 43.148438 90.449219 44.132812 86.71875 44.589844 C 85.601562 44.730469 85.425781 43.746094 86.4375 43.007812 C 92.992188 38.363281 103.769531 39.699219 105.023438 41.25 C 106.277344 42.832031 104.675781 53.695312 98.539062 58.902344 C 97.597656 59.710938 96.691406 59.289062 97.109375 58.234375 C 98.503906 54.75 101.605469 46.910156 100.140625 45.046875 Z M 100.140625 45.046875 "/>
</g>
</svg>
