<?xml version="1.0" encoding="UTF-8" standalone="no"?>
<!-- Created with Inkscape (http://www.inkscape.org/) -->

<svg
   version="1.1"
   id="svg1"
   width="3482"
   height="636.47906"
   viewBox="0 0 3482 636.47906"
   xmlns="http://www.w3.org/2000/svg"
   xmlns:svg="http://www.w3.org/2000/svg">
  <defs
     id="defs1" />
  <g
     id="g1"
     transform="translate(0,-1.520909)">
    <path
       style="fill:#000000"
       d="m 2966.4119,637.86439 c -14.337,-1.6991 -23.0283,-5.3499 -30.6684,-12.88231 -8.9956,-8.86883 -12.5016,-19.57554 -11.5983,-35.41888 1.403,-24.60521 19.5618,-40.04226 47.1023,-40.04226 24.3495,0 41.5304,11.92547 46.0951,31.99528 6.1387,26.98966 -8.105,50.82594 -32.8616,54.99268 -7.2272,1.2164 -14.5852,1.76838 -18.0691,1.35549 z m 16.5247,-23.59345 c 6.8566,-3.46794 10.1642,-8.99641 10.7324,-17.9385 0.616,-9.6944 -0.8478,-14.66692 -5.7651,-19.58417 -4.294,-4.29406 -9.6454,-6.23151 -17.1848,-6.22175 -14.1391,0.0183 -22.104,8.27849 -22.1726,22.99442 -0.049,10.4973 3.6326,17.14563 11.8654,21.42741 4.7663,2.47892 17.0125,2.11063 22.5247,-0.67741 z m 309.4753,21.903 c -3.85,-0.69102 -10.0375,-2.28233 -13.75,-3.53623 l -6.75,-2.27983 V 619.02709 607.6963 l 8.5035,3.46686 c 11.5656,4.71522 21.1291,6.58478 31.643,6.18586 9.0818,-0.34459 12.8535,-2.05477 12.8535,-5.82808 0,-3.46448 -3.7729,-5.1234 -18.2176,-8.01021 -7.9298,-1.58479 -16.89,-3.80641 -19.9116,-4.93694 -5.691,-2.12928 -11.0554,-6.55453 -13.3247,-10.99206 -3.3838,-6.61672 -2.5941,-17.33782 1.7567,-23.84894 5.5808,-8.35178 20.6242,-14.21185 36.4834,-14.21185 8.6582,0 24.2381,2.98774 29.4638,5.65025 2.7478,1.40001 2.75,1.40978 2.75,12.37544 0,9.79996 -0.7254,12.84564 -2.4103,10.1195 -0.2905,-0.47014 -3.2378,-1.84274 -6.5494,-3.05022 -17.1103,-6.23872 -35.0199,-6.7386 -38.0578,-1.06222 -2.4281,4.53687 1.9396,7.29925 14.84,9.38574 18.6604,3.01809 26.7006,6.09673 32.1803,12.32205 4.4606,5.06749 5.4044,8.52432 4.8224,17.66361 -0.6641,10.42991 -6.7116,17.55811 -18.4706,21.77146 -7.2704,2.60503 -27.2316,3.38407 -37.8546,1.47739 z m -847.5,-42.06411 v -41.47458 l 12.602,-0.30715 c 6.9311,-0.16894 12.926,-0.0822 13.322,0.19284 0.396,0.275 8.2655,10.51094 17.4879,22.74653 9.2223,12.23559 17.1774,22.49964 17.678,22.80902 0.5368,0.33175 0.9101,-8.89641 0.9101,-22.49653 v -23.05902 h 12 12 v 41.5 41.5 l -12.75,-0.0499 -12.75,-0.0499 -18,-24.01435 -18,-24.01435 -0.5,23.81423 -0.5,23.81422 -11.75,0.28174 -11.75,0.28174 z m 118,-0.0766 V 552.5209 h 37.0375 37.0376 l -0.2876,9.25 -0.2875,9.25 -24,0.5 -24,0.5 -0.2993,5.72824 -0.2992,5.72823 19.2992,0.27177 19.2993,0.27176 v 8.5 8.5 l -19,0.5 -19,0.5 v 6.5 6.5 l 25.3088,0.2673 25.3089,0.26729 -0.7125,7.23271 c -0.3918,3.97799 -1.013,8.3577 -1.3805,9.7327 l -0.6681,2.5 -36.6783,0.26233 -36.6783,0.26232 z m 128,10.54647 V 573.573 l -15.25,-0.27605 -15.25,-0.27605 -0.285,-10.25 -0.285,-10.25 h 40.8622 40.8621 l 1.241,9.48528 c 0.6825,5.21689 0.9587,9.94189 0.6138,10.5 -0.3773,0.61043 -6.3751,1.01472 -15.0537,1.01472 h -14.4265 l -0.2644,30.75 -0.2645,30.75 -11.25,0.28276 -11.25,0.28275 z m 92.6987,24.1912 c -1.6307,-6.5257 -11.0404,-45.28241 -15.9633,-65.75 l -2.4052,-10 12.0028,-0.28212 c 6.6015,-0.15517 12.3513,0.0698 12.7772,0.5 0.426,0.43017 1.9394,5.28212 3.3631,10.78212 7.1213,27.50986 11.8694,44.5 12.4363,44.5 0.3462,0 4.4457,-12.60738 9.1099,-28.01641 l 8.4805,-28.01641 12.9112,0.26641 12.9111,0.26641 6.3305,24 c 8.4928,32.19767 8.7433,33 10.3024,33 0.962,0 3.193,-8.28398 7.6756,-28.5 3.4756,-15.675 6.3306,-28.6125 6.3443,-28.75 0.035,-0.34892 25.0249,-0.31526 25.0249,0.0337 0,0.15604 -1.8405,7.01854 -4.09,15.25 -7.9781,29.19321 -14.8078,54.05334 -16.6117,60.46629 l -1.8284,6.5 h -15.4699 -15.4699 l -1.6914,-6 c -0.9303,-3.3 -2.5835,-8.925 -3.6739,-12.5 -1.0904,-3.575 -3.1186,-10.325 -4.5071,-15 -4.2694,-14.3747 -5.1167,-16.5 -6.5787,-16.5 -0.7768,0 -1.754,1.125 -2.1715,2.5 -1.7825,5.86951 -5.8742,19.51164 -9.9728,33.25 l -4.4003,14.75 h -16.5745 -16.5744 z m 262.968,6.08334 c -0.3667,-0.36667 -0.6667,-19.04167 -0.6667,-41.5 V 552.5209 h 29.525 c 26.9263,0 30.024,0.17541 35.195,1.99286 6.6175,2.32586 11.4063,6.59755 14.5332,12.96382 1.8309,3.72763 2.2329,6.24894 2.2392,14.04332 0.01,8.45543 -0.3096,10.146 -2.8771,15.37507 -2.2298,4.54112 -3.984,6.55835 -7.7259,8.88449 -2.8702,1.78422 -4.5629,3.46358 -4.1577,4.12494 0.3759,0.61353 4.6618,6.5155 9.5242,13.1155 l 8.8408,12 -13.7889,0.27979 -13.789,0.27979 -2.0094,-2.72633 c -1.1052,-1.49947 -4.5069,-6.35038 -7.5593,-10.77978 l -5.55,-8.05347 h -8.45 -8.4501 l -0.2838,10.75 -0.2839,10.75 h -11.7995 c -6.4897,0 -12.0995,-0.3 -12.4661,-0.66666 z m 49.5538,-41.37778 c 4.9839,-1.38415 6.7795,-4.225 6.7795,-10.72581 0,-9.35436 -4.681,-11.65093 -22.5,-11.03888 l -9,0.30913 -0.2884,9.92883 c -0.1586,5.46085 -0.06,10.52335 0.2186,11.25 0.6292,1.63961 19.139,1.84624 24.7903,0.27673 z m 65.7795,0.54444 v -41.5 h 12.5 12.5 v 15 15 h 5.3194 5.3195 l 11.1636,-15 11.1637,-15 h 15.1719 c 14.3596,0 15.0908,0.0937 13.6577,1.75 -5.713,6.60292 -30.7958,37.45599 -30.7958,37.88032 0,0.28883 7.2,9.91902 16,21.40041 8.8,11.4814 16,21.12142 16,21.42227 0,0.30085 -6.0755,0.547 -13.5012,0.547 h -13.5012 l -12.6831,-16 -12.683,-16 h -5.3158 -5.3157 v 16 16 h -12.5 -12.5 z m -2201,-238.99075 V 124.52087 h 44.3272 44.3271 l 1.1109,6.25 c 0.6111,3.4375 2.3517,13.7875 3.8681,23 1.5164,9.2125 3.0068,16.7384 3.3119,16.7242 0.3051,-0.014 2.0093,-2.1516 3.7871,-4.75 14.5684,-21.2925 41.0309,-37.8331 71.055,-44.4136 14.5602,-3.1912 42.7917,-3.203 56.5902,-0.024 21.2212,4.8896 40.3739,13.9534 56.1225,26.5595 32.7532,26.2175 53.2485,63.1363 61.1511,110.1535 2.6371,15.68931 2.6652,61.24303 0.047,76.50003 -2.0025,11.66997 -4.9756,24.158 -7.3805,31 -10.4455,29.7174 -22.2866,49.2358 -41.2532,68 -20.431,20.21288 -42.8915,32.31134 -71.5937,38.56436 -12.1668,2.65063 -38.7839,2.43549 -51.9709,-0.42006 -17.7141,-3.83588 -31.4894,-9.38403 -44.1279,-17.77297 -7.1632,-4.75466 -19.3729,-16.24218 -24.0819,-22.65736 l -3.7902,-5.16366 -0.5,79.47485 -0.5,79.47484 -50.25,0.25925 -50.25,0.25925 z m 190,32.30032 c 37.1595,-9.96238 57.3969,-49.69595 53.0484,-104.15393 -3.0111,-37.71007 -19.0466,-64.25077 -45.5484,-75.38827 -6.3054,-2.6498 -19.9924,-5.274 -27.3605,-5.2457 -7.2261,0.028 -21.0763,3.1215 -28.1395,6.2857 -27.9857,12.537 -43.9836,44.433 -43.9836,87.69263 0,26.24111 5.8083,48.25728 17.0368,64.57729 16.3308,23.73598 45.7934,34.04825 74.9468,26.23228 z m 276.804,86.21963 c -48.6013,-6.1948 -85.1659,-38.30395 -93.2528,-81.88966 -2.9418,-15.85539 -1.5249,-41.21878 3.1083,-55.63954 10.7653,-33.50654 41.1473,-58.21936 87.1693,-70.90373 17.7964,-4.905 35.7464,-7.7358 70.3347,-11.0919 29.4263,-2.8553 38.8965,-5.3919 44.6667,-11.9638 7.3175,-8.3341 4.0237,-24.5188 -6.4698,-31.7908 -11.3965,-7.8978 -28.9725,-11.008 -50.6578,-8.9643 -26.9637,2.5412 -55.8569,11.9551 -91.4725,29.8033 -10.0485,5.0357 -18.5014,8.7813 -18.7843,8.3236 -0.2828,-0.4577 -3.9247,-9.2877 -8.0929,-19.6223 -4.1683,-10.3345 -10.4913,-25.9901 -14.0511,-34.7901 -3.5598,-8.8 -7.0968,-17.7097 -7.8601,-19.7994 l -1.3879,-3.7994 16.7406,-8.2006 c 16.4403,-8.0535 18.6352,-9.0546 30.7056,-14.0048 19.0972,-7.832 43.7823,-14.6056 67,-18.3846 15.5552,-2.5319 54.4297,-2.5016 70,0.055 13.0223,2.1378 27.8444,5.7608 35.5,8.6773 3.025,1.1524 7.075,2.6815 9,3.398 10.5406,3.9234 27.0538,14.9 36.7889,24.4545 18.0413,17.7064 29.4505,40.3522 35.4217,70.3078 2.2455,11.265 2.2527,11.619 2.5489,126.04673 l 0.2971,114.75 h -44.5093 -44.5092 l -0.478,-2.25 c -0.2629,-1.2375 -1.6634,-10.125 -3.1122,-19.75 -1.4488,-9.625 -3.0412,-18.53132 -3.5386,-19.79183 -0.8632,-2.18714 -1.1196,-2.02725 -5.6121,3.5 -5.9859,7.36472 -6.5806,7.97903 -13.7589,14.21277 -15.7626,13.68857 -34.8741,22.76262 -58.0049,27.5404 -9.2322,1.90697 -34.0796,2.79784 -43.7294,1.56786 z m 72.196,-78.70478 c 21.2835,-5.13775 35.973,-19.209 41.5742,-39.82442 1.118,-4.11494 1.7958,-12.04789 2.1574,-25.25 0.5782,-21.11405 0.6249,-20.95836 -5.2316,-17.44049 -8.2008,4.92606 -23.0698,9.149 -43,12.21243 -36.2564,5.57291 -46.4379,8.80687 -55.1673,17.52292 -5.8989,5.88974 -8.3327,12.15647 -8.3327,21.45514 0,16.41301 9.5791,26.94737 28.5,31.34201 3.85,0.89421 8.8,1.81022 11,2.03558 6.6835,0.6846 21.6145,-0.39105 28.5,-2.05317 z m 506.9084,78.63093 c -24.3312,-2.16868 -52.7807,-11.01501 -73.4084,-22.82623 -27.0157,-15.4689 -50.2309,-39.99967 -63.9812,-67.60663 -13.4373,-26.97864 -18.5188,-50.72018 -18.5188,-86.52249 0,-34.24913 4.9065,-58.36203 17.0747,-83.91413 20.6672,-43.3991 59.3926,-74.668 108.4253,-87.5482 18.3763,-4.8272 28.6034,-6.0234 51.5,-6.0234 22.2493,0 32.298,1.1168 50.18,5.577 33.3304,8.3134 63.1339,26.2158 85.6474,51.4469 18.3266,20.5387 31.176,46.9388 37.9454,77.9618 2.5052,11.4805 2.6185,13.3205 2.6185,42.50003 0,29.17954 -0.1133,31.01953 -2.6185,42.5 -6.3386,29.04848 -18.2648,54.60882 -34.6264,74.21119 -17.1693,20.57023 -36.1501,34.49857 -64.1464,47.07138 -6.7686,3.03969 -23.259,7.93432 -34.4047,10.21184 -18.1217,3.70304 -41.0264,4.80245 -61.6869,2.96094 z m 40.5916,-86.11263 c 28.4415,-8.17294 46.4622,-32.20212 51.9705,-69.2987 2.9278,-19.71787 1.4072,-43.57727 -3.9094,-61.33975 -10.1573,-33.9354 -34.9658,-53.6276 -67.5611,-53.6276 -35.6243,0 -60.0982,21.9582 -70.1325,62.9233 -3.0441,12.4279 -3.3324,45.47533 -0.5103,58.50003 4.7082,21.72901 14.9809,40.72456 27.4228,50.70788 8.8312,7.0861 23.938,13.44626 34.72,14.61752 7.1934,0.78143 20.8571,-0.43008 28,-2.48268 z m 279.5,86.46879 c -13.9653,-1.05231 -34.132,-7.33999 -46.7938,-14.58957 -31.9121,-18.27148 -49.1666,-45.99574 -50.8605,-81.72194 -1.5812,-33.34813 6.9315,-57.46421 27.5636,-78.08664 15.6113,-15.60393 36.0965,-26.60799 63.9195,-34.33559 17.4891,-4.8574 35.5048,-7.6938 70.3347,-11.0734 41.0233,-3.9806 50.3046,-8.9906 48.5289,-26.1954 -2.022,-19.5921 -25.6246,-29.8564 -60.9898,-26.5235 -27.1257,2.5565 -54.8944,11.6245 -90.9615,29.7042 l -18.7589,9.4034 -1.5479,-3.6965 c -0.8513,-2.0331 -3.6039,-8.8716 -6.1168,-15.1966 -2.513,-6.325 -5.3536,-13.3 -6.3125,-15.5 -4.7828,-10.9724 -17.005,-42.3349 -17.005,-43.6352 0,-0.9284 5.9053,-4.3417 15.75,-9.1034 38.2872,-18.5192 62.7393,-26.6233 97.75,-32.3973 15.4907,-2.5547 54.2419,-2.5625 70.3385,-0.014 20.7758,3.2891 35.055,7.5865 50.6615,15.2469 35.3485,17.3504 56.0335,45.6698 65.707,89.958 2.148,9.8341 2.1761,11.2433 2.5181,126.19513 l 0.3459,116.25 h -44.5355 c -27.2504,0 -44.5355,-0.36624 -44.5355,-0.94364 0,-1.64961 -6.9444,-42.33406 -7.2839,-42.67358 -0.1789,-0.17891 -3.1971,3.08945 -6.7072,7.26302 -25.1859,29.94675 -65.5372,45.09208 -111.0089,41.66571 z m 70.3454,-79.32043 c 16.3225,-4.10999 28.9799,-13.98819 35.8662,-27.99108 5.2547,-10.68522 5.8722,-14.13358 6.491,-36.25 0.5932,-21.19931 0.4818,-21.66872 -4.3426,-18.2896 -7.6718,5.37355 -29.1864,10.92974 -56.36,14.55507 -26.9677,3.59787 -41.9078,10.64527 -48.0266,22.65477 -2.102,4.12564 -2.4611,6.21476 -2.463,14.32976 0,8.64657 0.2622,9.97825 2.9426,14.82355 5.7032,10.30968 18.1351,16.70955 36.047,18.55683 7.4084,0.76403 21.9433,-0.39958 29.8454,-2.3893 z m 465.5373,79.03602 c -59.5109,-5.80983 -92.8531,-36.99926 -100.4355,-93.95066 -1.1583,-8.69946 -1.4116,-37.93067 -1.4277,-164.71317 l -0.019,-154.136801 6.25,-1.0769 c 3.4375,-0.5923 12.55,-2.0047 20.25,-3.1386 7.7,-1.134 19.9625,-2.9503 27.25,-4.0364 7.2875,-1.086 19.4375,-2.8899 27,-4.0086 7.5625,-1.1187 15.2073,-2.2631 16.9884,-2.5431 l 3.2383,-0.5091 0.2617,39.2931 0.2616,39.293101 59.75,0.2579 59.75,0.2579 v 38.9842 38.9843 l -59.75,0.2579 -59.75,0.2578 -0.2729,74.50003 c -0.2966,80.99677 -0.1083,84.38067 5.2875,95.02884 9.6661,19.0752 36.182,22.39128 74.4854,9.31518 5.775,-1.97148 13.65,-5.07886 17.5,-6.90528 3.85,-1.82642 7.2739,-3.00981 7.6086,-2.62975 0.3348,0.38006 4.2556,9.91601 8.7131,21.19101 4.4574,11.275 10.5879,26.575 13.6232,34 3.0353,7.425 5.5269,14.26204 5.5369,15.19342 0.039,3.59008 -36.0233,18.75032 -57.5185,24.18057 -24.3837,6.15993 -53.2529,8.73526 -74.5806,6.65311 z m 296.1173,-0.0761 c -70.2617,-6.36597 -126.9902,-49.73882 -147.6727,-112.90595 -12.4654,-38.07089 -12.4727,-90.05858 -0.018,-128.04508 11.7347,-35.7906 36.0181,-66.8758 67.6908,-86.6511 19.6834,-12.2897 41.8648,-20.3989 68.5,-25.0427 14.1934,-2.4746 48.9443,-2.4696 63.5,0.01 40.4867,6.8947 71.2091,22.0026 96.9684,47.6847 29.2825,29.1948 45.3977,66.6253 48.1044,111.73168 1.8148,30.24326 -1.3528,58.65568 -9.0694,81.34954 -25.8287,75.96016 -99.6326,119.87655 -188.0034,111.86981 z m 39.3447,-85.92377 c 23.3704,-6.74863 40.1843,-24.39129 48.63,-51.02723 6.552,-20.66334 6.6052,-59.23594 0.1098,-79.62503 -9.295,-29.1772 -27.531,-47.1153 -53.3047,-52.4338 -11.6511,-2.4042 -16.9085,-2.4042 -28.5596,0 -14.0838,2.9063 -22.9359,7.7036 -33.2569,18.0232 -11.4169,11.4155 -17.832,23.623 -22.6153,43.0356 -1.5321,6.2182 -1.848,11.51656 -1.848,31.00003 0,29.41136 1.791,38.14405 11.7928,57.5 5.1526,9.97163 18.1517,23.43519 27.2072,28.17926 15.2547,7.99176 35.4685,10.07689 51.8447,5.34797 z M 1703.9119,235.02091 V 1.520909 h 50.5 50.5 V 235.02091 468.52094 h -50.5 -50.5 z m 897,0.01 V 1.521709 h 51.0021 51.0021 l -0.2521,233.250001 -0.2521,233.25003 -50.75,0.25917 -50.75,0.25916 z m 813.9121,-33.5603 c -25.4937,-6.0414 -42.0886,-27.3126 -42.0886,-53.9489 0,-31.7099 23.4403,-55.000001 55.3548,-55.000001 24.7369,0 46.0304,16.074301 52.3316,39.504501 2.0959,7.7935 2.1059,23.1613 0.02,30.9141 -5.0995,18.954 -21.5097,34.616 -40.3292,38.4905 -6.118,1.2595 -20.0491,1.2814 -25.2887,0.04 z m 24.3683,-7.4204 c 13.3311,-2.8248 24.0594,-11.3198 30.25,-23.9529 11.8799,-24.2429 2.7201,-54.3009 -19.948,-65.4604 -15.0622,-7.415101 -34.5136,-6.496401 -48.4279,2.2873 -5.0004,3.1566 -12.7562,11.8781 -15.6616,17.6115 -2.4239,4.7833 -5.4929,17.6262 -5.4929,22.986 0,5.5419 3.1043,18.2723 5.7092,23.4128 3.3069,6.5259 13.4343,16.539 19.7908,19.5673 10.1968,4.8579 21.8327,6.0802 33.7804,3.5484 z m -32.3637,-19.9433 c -0.2292,-0.2281 -0.1917,-12.2656 0.083,-26.75 l 0.5,-26.3352 14.6037,0.09 c 12.954,0.08 15.1243,0.342 19.2123,2.321 6.2324,3.017 8.684,7.1768 8.684,14.7346 0,3.9623 -0.5665,6.7241 -1.7192,8.3819 -2.2042,3.1699 -5.4322,5.8967 -7.0308,5.9393 -1.8433,0.049 -1.698,0.457 3.75,10.5332 2.75,5.0862 5,9.7544 5,10.3738 0,0.6939 -2.0432,1.1262 -5.3228,1.1262 h -5.3228 l -4.7453,-9 -4.7453,-9 h -6.4319 -6.4319 v 9 9 h -4.8333 c -2.6584,0 -5.0209,-0.1866 -5.25,-0.4148 z m 29.0497,-29.0678 c 4.856,-2.5111 4.9476,-10.8875 0.1472,-13.4566 -1.0902,-0.5834 -5.8367,-1.0608 -10.5479,-1.0608 h -8.5657 v 7.3334 c 0,4.0333 0.3,7.6333 0.6667,8 1.3157,1.3157 15.391,0.6881 18.2997,-0.816 z"
       id="path1" />
    <path
       style="fill:#f04e23;fill-opacity:1"
       d="m 228.44375,538.88326 -56.37397,-57.0707 9.9063,-10.11498 c 5.44847,-5.56324 68.02768,-68.4169 139.06492,-139.67479 127.31975,-127.71524 137.34139,-137.84194 137.34139,-138.78174 0,-0.2611 -12.4875,-13.0544 -27.75,-28.4296 -15.2625,-15.3753 -27.86287,-28.2696 -28.00083,-28.6542 -0.13796,-0.3846 25.17529,-26.1224 56.25166,-57.195097 l 56.50249,-56.4958 56.52226,56.9119 56.52226,56.911897 -73.48358,73.5864 c -40.41597,40.4725 -102.525,102.83643 -138.02007,138.58643 -35.49506,35.75 -67.05438,67.52966 -70.13182,70.62145 l -5.59534,5.62144 28.11819,28.29845 c 15.465,15.56415 27.99367,28.61663 27.84148,29.0055 -0.15218,0.38888 -25.49125,26.1854 -56.30903,57.3256 l -56.03234,56.61856 z m 229.43864,0.68026 c -30.8,-31.12075 -56,-56.98787 -56,-57.4825 0,-0.49463 64.09117,-65.32796 142.42483,-144.07408 l 142.42483,-143.17479 56.29589,56.3154 c 30.96274,30.9735 56.30907,56.75779 56.32518,57.29844 0.0161,0.54065 -27.16658,28.21565 -60.40594,61.5 -33.23937,33.28435 -97.47687,97.79583 -142.75,143.35885 l -82.31479,82.84187 z M 56.39226,366.41085 0,309.85872 27.50073,282.16085 c 15.12541,-15.2338 79.55367,-79.8979 143.17392,-143.6979 l 115.67318,-115.999997 56.01728,56.4315 c 30.80951,31.037297 56.01577,56.912297 56.01392,57.499997 -0.002,0.5877 -34.89856,35.9435 -77.54825,78.5685 -42.64969,42.625 -106.6267,106.86253 -142.17114,142.75003 -35.54443,35.8875 -64.90724,65.25 -65.25068,65.25 -0.34344,0 -26.00095,-25.44846 -57.0167,-56.55213 z"
       id="path5" />
  </g>
</svg>
