<?xml version="1.0" encoding="UTF-8" standalone="no"?>
<!-- Created with Inkscape (http://www.inkscape.org/) -->

<svg
   width="1463.2515"
   height="321.7612"
   viewBox="0 0 387.15194 85.132651"
   version="1.1"
   id="svg1"
   xml:space="preserve"
   xmlns="http://www.w3.org/2000/svg"
   xmlns:svg="http://www.w3.org/2000/svg"><defs
     id="defs1" /><g
     id="layer1"
     transform="translate(-9.6240169,-10.218056)"><g
       id="g30"
       transform="translate(4.7314516,270.95654)"><path
         style="fill:#737373;fill-opacity:1;stroke:none"
         d="m 316.55144,-240.43775 h 10.05416 v 13.22917 c 1.6e-4,2.69013 0.0891,5.91723 1.82696,8.12634 2.08369,2.64865 5.1492,2.7374 8.22721,2.72137 1.06508,-0.006 2.96778,-0.042 3.69683,-0.98586 0.80499,-1.04216 0.35438,-4.18984 0.007,-5.36394 -1.09774,0.25105 -2.29683,0.76574 -3.43959,0.60777 -4.5252,-0.62554 -3.175,-8.29084 -3.175,-11.45568 0,-1.48223 -0.684,-5.34673 0.42423,-6.45494 1.1114,-1.11139 4.96207,-0.42423 6.45494,-0.42423 v -5.55625 c -1.49284,0 -5.34354,0.68717 -6.45494,-0.42423 -1.46554,-1.46551 -0.10248,-6.05889 -0.68881,-8.04244 -1.5678,0.32446 -5.94134,0.89157 -6.68276,2.45393 -0.68178,1.43666 0.67986,4.56684 -0.43774,5.66404 -0.58972,0.57898 -1.9231,0.34865 -2.66908,0.3487 h -7.14375 c 0,-3.42404 -0.51877,-8.33678 4.23333,-8.63101 1.0469,-0.0648 2.14603,0.25064 3.175,0.42893 0.32304,-1.35677 0.80657,-4.30815 -0.15965,-5.47317 -1.85114,-2.232 -7.64171,-0.46011 -9.62993,0.71985 -2.61816,1.55383 -4.41501,4.37697 -4.71738,7.39915 -0.13514,1.35064 0.47791,3.75733 -0.31704,4.91234 -1.05265,1.52945 -4.34537,-0.45734 -4.71596,1.71776 -0.16191,0.95028 -0.45042,3.81865 0.57406,4.32275 1.40877,0.69321 3.93106,-0.72938 4.35339,1.48767 0.93799,4.92434 0.0604,10.85111 0.0604,15.8699 0,1.39641 -0.62164,4.79756 0.27191,5.92577 0.76291,0.96325 6.41511,0.8464 6.78773,-0.40872 0.60782,-2.04736 0.0841,-4.97061 0.0841,-7.10455 v -15.61042 m -153.19337,-17.85753 c -5.47037,0.78544 -4.31011,8.55353 1.05833,7.83031 5.25634,-0.70813 4.18665,-8.5834 -1.05833,-7.83031 m -54.23958,1.18878 c 0.6185,9.60686 0,19.47146 0,29.10417 v 7.67291 c 0,0.85231 -0.25624,2.29797 0.31194,3.01536 0.87252,1.10164 4.98131,0.42423 6.30264,0.42423 1.24947,-9.88671 0.26458,-20.45669 0.26458,-30.42709 2.04032,2.08575 2.96307,6.03014 3.98223,8.73126 1.91728,5.08143 4.18339,10.04986 6.23159,15.08124 1.28534,3.15744 2.33818,8.36037 6.95552,6.45494 1.90479,-0.78605 2.94066,-5.71342 3.69233,-7.51327 2.2303,-5.3404 4.16697,-10.81113 6.43001,-16.13958 0.89141,-2.09886 1.4981,-4.99329 3.13541,-6.61459 v 21.96042 c 0,1.7955 -0.85646,6.61773 0.27193,8.04244 0.91486,1.15511 5.47381,0.42423 6.87182,0.42423 0.64931,-3.4975 0.26458,-7.29785 0.26458,-10.84792 v -19.57917 -7.14375 c -5e-5,-0.74164 0.24291,-2.1101 -0.42423,-2.63848 -0.55194,-0.43714 -1.56832,-0.27164 -2.2216,-0.27193 -1.80243,-8.1e-4 -6.18811,-0.79482 -7.50123,0.61327 -1.87767,2.01349 -2.82489,6.35771 -3.87872,8.91173 -2.71175,6.57207 -5.90942,13.11693 -8.19922,19.84375 h -0.52917 c -2.46898,-7.29813 -5.45159,-14.60735 -8.46666,-21.69584 -0.78746,-1.85131 -1.51504,-6.28417 -3.25503,-7.40098 -0.75035,-0.48162 -1.9824,-0.27193 -2.83039,-0.27193 -2.41667,0 -5.04733,-0.29753 -7.40833,0.26458 m 85.725,33.07292 c -4.03437,0.52767 -6.23594,3.01331 -10.58334,1.25473 -7.04818,-2.85109 -6.41776,-13.33214 -0.52916,-16.98069 4.06711,-2.51997 7.19407,-0.0785 11.1125,0.90929 0,-1.54507 0.63568,-4.89046 -0.27194,-6.18116 -0.70301,-0.99974 -2.83598,-1.32061 -3.9614,-1.47461 -3.70542,-0.50703 -8.05868,-0.18222 -11.37708,1.70551 -4.96107,2.82217 -7.40793,8.62519 -7.40793,14.15234 0,8.53358 6.53807,14.28698 14.81626,14.2875 2.04566,1.3e-4 6.69254,0.1431 7.93015,-1.91149 0.8203,-1.36178 0.27194,-4.20546 0.27194,-5.76142 m 74.08333,-15.08125 c 0.40724,-1.37769 0.85043,-5.06534 -0.15965,-6.23548 -0.89339,-1.03495 -3.08295,-1.09414 -4.33827,-1.19552 -3.79361,-0.30639 -7.86665,0.007 -10.82321,2.74812 -4.6206,4.2845 -2.53479,11.22145 2.62113,13.84449 2.18431,1.11125 6.87687,2.20145 7.21827,5.12589 0.5511,4.72054 -7.17966,2.79319 -9.33494,1.82697 -0.73505,-0.32953 -2.40231,-1.52376 -2.9786,-0.41872 -2.16669,4.15463 1.27444,6.54393 4.83068,7.01064 5.08304,0.66708 11.69664,-0.19846 14.01129,-5.50848 2.3539,-5.40007 -1.25024,-9.79504 -6.07379,-11.80049 -2.06817,-0.85988 -6.58963,-2.30069 -5.47214,-5.39252 1.52092,-4.20805 8.00494,-1.04337 10.49923,-0.005 m -61.9125,-3.175 c 0,-0.88631 0.35839,-2.81239 -0.42423,-3.43224 -0.84076,-0.66589 -5.79056,-0.68441 -6.29529,0.34135 -0.75139,1.52702 -0.15965,4.57751 -0.15965,6.26589 v 15.08125 c 0,1.54666 -0.71027,5.47938 0.27193,6.71952 0.6742,0.85124 5.06512,0.72163 5.99397,0.26458 1.34281,-0.66075 0.61327,-5.65256 0.61327,-6.9841 0,-4.73614 -1.47919,-15.0588 5.29167,-16.08324 1.64319,-0.24862 3.19206,0.37738 4.7625,0.73741 0.28528,-1.53671 0.95284,-5.21965 -0.15965,-6.49985 -2.66053,-3.06159 -8.20296,1.89785 -9.89452,3.58943 m 22.48958,-4.11064 c -11.66167,2.06061 -16.09209,17.91151 -7.86176,26.2897 3.51256,3.57567 9.43116,4.47213 14.21176,3.62741 11.07878,-1.9576 15.91807,-16.52624 8.8956,-25.2773 -3.57939,-4.46047 -9.82398,-5.5978 -15.2456,-4.63981 m 55.82708,0.0347 c -10.20709,2.36146 -15.39957,15.23674 -9.31739,24.18427 3.38239,4.97584 10.17464,6.84433 15.93198,5.68487 4.64548,-0.93555 8.49486,-3.38481 10.55068,-7.80154 4.32548,-9.29283 -0.63979,-22.20697 -11.8736,-22.225 -1.71039,-0.003 -3.61741,-0.22994 -5.29167,0.1574 m -124.88333,0.37177 c -0.87296,6.90749 -0.26458,14.20245 -0.26458,21.16667 0,1.66653 -0.50008,6.20446 0.53651,7.51327 0.87397,1.10346 5.01916,0.42423 6.34266,0.42423 l 0.26458,-14.55209 -0.26458,-14.55208 h -6.61459 m 71.4375,5.10671 c 10.84063,-1.49657 11.99207,17.66612 1.5875,18.89443 -10.86542,1.28271 -11.68226,-17.50084 -1.5875,-18.89443 m 56.09167,8.1e-4 c 10.85609,-1.42195 11.96997,17.66792 1.5875,18.89362 -10.88684,1.28525 -11.75765,-17.56152 -1.5875,-18.89362 m -137.84792,64.47804 h 4.23334 v -20.37292 c 0,-1.29986 0.70825,-5.80833 -0.83295,-6.26589 -4.21408,-1.2511 -3.40039,3.00997 -3.40039,5.73672 v 20.90209 m 45.51344,-26.26194 c -2.93477,1.16523 -0.68693,5.38303 2.09993,4.09961 2.79625,-1.28774 0.64898,-5.19105 -2.09993,-4.09961 m -87.3176,21.49944 c 0,1.06185 -0.35659,2.9262 0.27193,3.83666 0.73379,1.06293 2.81455,1.06993 3.9614,1.25555 3.8782,0.62766 9.41555,0.13369 11.46344,-3.7693 4.30871,-8.21179 -7.24764,-9.4371 -10.55495,-13.76895 -2.65992,-3.4839 3.20118,-5.26742 5.70609,-4.96767 1.44098,0.17243 2.80726,0.76793 4.23334,1.00954 0.1597,-1.03351 0.57411,-2.7412 -0.20967,-3.61311 -0.82882,-0.92203 -2.62894,-0.81845 -3.75908,-0.90747 -3.79804,-0.29916 -8.87476,0.35867 -10.73094,4.256 -0.40051,0.84093 -0.38151,1.73598 -0.38156,2.64583 -4.6e-4,6.98705 7.70157,6.21781 10.99776,10.58823 3.03333,4.02189 -3.44517,5.65525 -6.23526,4.98768 -1.63728,-0.39174 -3.1428,-1.18597 -4.7625,-1.55299 m 165.62916,4.7625 c 0.91387,0.0975 3.02097,0.4132 3.8091,-0.0923 0.63695,-0.40851 0.42394,-1.65462 0.42423,-2.28898 6.8e-4,-1.51694 -0.64637,-5.02729 0.42424,-6.21403 1.0873,-1.20525 3.21924,-0.43891 4.60285,-0.58694 2.77244,-0.29664 5.38552,-1.58405 6.82649,-4.04715 2.21068,-3.77886 1.16175,-9.00975 -2.85774,-11.039 -2.29854,-1.16043 -4.89993,-1.13163 -7.40834,-1.13163 -1.29565,0 -4.34379,-0.56189 -5.3966,0.27194 -1.1,0.8712 -0.42423,5.03138 -0.42423,6.34265 v 18.78541 m -83.07916,-2.91042 c -4.87419,-5.3e-4 -4.23334,-3.25094 -4.23334,-7.14374 0,-1.13368 -0.38413,-3.16606 0.27193,-4.14923 1.10853,-1.66121 4.16302,0.5767 3.94468,-2.46046 -0.1608,-2.23656 -2.67552,-0.64462 -3.82299,-1.75205 -0.92861,-0.89619 -0.3603,-3.61615 -0.6582,-4.86743 -1.0603,0.14279 -3.29626,0.29123 -3.8091,1.39662 -0.47607,1.0261 0.20612,2.34404 -0.58388,3.28177 -1.01011,1.199 -3.32404,0.25782 -2.66646,2.71442 0.51199,1.91267 3.00276,0.52353 3.0866,3.19052 0.0994,3.16132 -1.14106,8.74766 0.90868,11.37218 1.16455,1.4911 5.81622,3.09266 7.29014,1.14183 0.50301,-0.66574 0.27194,-1.93903 0.27194,-2.72443 m 138.11249,-15.34582 c -1.07364,0.13569 -2.87253,-0.004 -3.11334,1.33843 -0.48237,2.68812 2.52178,1.32705 3.02924,3.175 1.04645,3.81065 -1.60891,9.4075 1.23329,12.66917 1.19147,1.36731 5.66932,2.70921 7.04557,0.88766 0.53908,-0.71351 0.27191,-2.14448 0.27191,-2.98901 -4.83598,1.15081 -4.23333,-3.54258 -4.23333,-6.87917 0,-1.13365 -0.38415,-3.16606 0.27191,-4.14922 0.77886,-1.1672 2.52255,-0.23519 3.58208,-0.77293 0.71178,-0.36124 0.74124,-1.51456 0.52898,-2.18241 -0.51855,-1.63141 -2.94172,-0.24015 -3.95874,-1.25717 -1.12729,-1.12728 0.27866,-3.28812 -0.69615,-4.43279 -0.42823,-0.50288 -1.30589,-0.23498 -1.84475,-0.10657 -2.57029,0.61253 -2.11667,2.50258 -2.11667,4.69901 m -50.18673,-3.27994 c 5.53536,-2.72371 11.45386,5.39359 5.20757,8.38011 -1.04403,0.49917 -4.70902,1.0923 -5.54892,0.0318 -0.68039,-0.85907 -0.27192,-3.03411 -0.27192,-4.07369 0,-1.02151 -0.49451,-3.79316 0.61327,-4.33826 m -143.75285,3.12865 c -7.27301,1.04428 -10.98686,10.64498 -5.73385,16.24207 2.16522,2.30705 5.60679,3.01279 8.64427,2.61807 7.64672,-0.99371 10.98273,-11.45231 5.26778,-16.80696 -2.1129,-1.9797 -5.41241,-2.4503 -8.1782,-2.05318 m 75.93542,0.003 c -12.25285,1.91372 -9.60085,20.64197 2.91042,18.85442 7.29215,-1.04187 10.87181,-10.72476 5.77101,-16.31413 -2.11949,-2.32251 -5.66742,-3.01103 -8.68143,-2.54029 m 19.31458,2.52967 c -0.0242,-2.04488 -3.50826,-3.44266 -4.14923,-1.28372 -0.43297,1.45838 -0.0841,3.4721 -0.0841,4.98789 0,3.39802 -0.84896,8.08575 0.0841,11.34727 0.31084,1.08651 2.92852,1.4061 3.68825,0.66004 0.78108,-0.76704 0.46098,-2.55343 0.46098,-3.54064 0,-3.3047 -0.8986,-13.08197 5.29065,-11.24132 3.9408,1.17197 2.64685,8.17301 2.64685,11.24132 0,1.01606 -0.38024,2.99951 0.61327,3.6566 0.92671,0.61289 2.59094,0.17864 3.62006,0.0476 0,-5.69727 2.32913,-20.16548 -7.40833,-18.39794 -1.97722,0.35891 -3.04418,1.75938 -4.7625,2.52294 m 16.13958,11.90625 c 0,0.99837 -0.32504,2.69264 0.42424,3.47817 2.42549,2.54284 9.44225,0.93256 11.4226,-1.36641 3.23398,-3.75428 -0.503,-7.2164 -3.90934,-8.64468 -1.17883,-0.49429 -3.29923,-0.93113 -3.529,-2.467 -0.66205,-4.42543 7.14571,-0.62196 7.67823,-2.41657 0.65647,-2.21232 -1.316,-2.89952 -3.09089,-3.08966 -2.85403,-0.30574 -6.5672,0.31145 -8.28068,2.8655 -4.05484,6.04401 4.92261,6.88436 7.37219,9.61401 2.56863,2.86231 -2.92317,3.55937 -4.64776,3.1697 -1.18154,-0.26697 -2.27317,-0.82403 -3.43959,-1.14306 m 57.67917,2.11666 v 1.85209 c 0.86548,9e-5 3.09141,0.48845 3.69684,-0.20681 0.80977,-0.92995 0.27191,-3.90487 0.27191,-5.08486 0,-4.52965 1.31142,-11.51202 -4.49792,-12.95315 -2.55478,-0.63376 -5.53209,-0.27277 -7.92587,0.79763 -1.0179,0.45515 -1.96529,2.22187 -1.06263,3.25299 0.5834,0.66642 1.76772,-0.18376 2.37392,-0.42158 1.90647,-0.74795 7.10373,-1.422 6.73851,2.16484 -0.11798,1.15889 -1.63927,1.13143 -2.50518,1.27331 -2.366,0.38767 -5.27916,0.42979 -7.08739,2.23814 -3.04794,3.04817 -1.26994,8.5969 2.85406,9.34575 3.07811,0.55894 4.56923,-1.11118 7.14375,-2.25835 m 13.49375,-13.75838 c -0.13953,-0.57692 -0.15131,-1.48532 -0.53546,-1.95702 -0.61021,-0.74928 -3.30436,-0.71653 -3.76605,0.18905 -0.57894,1.13556 -0.19641,3.16742 -0.19641,4.4138 0,3.62234 -0.92381,8.6891 0.11476,12.15532 0.37265,1.24374 2.51929,1.45987 3.50531,0.80192 0.90911,-0.60665 0.61327,-2.23627 0.61327,-3.16765 0,-2.66513 -0.38247,-5.92831 0.57919,-8.46565 1.1613,-3.06404 3.52653,-2.43444 6.03539,-3.17602 -0.16617,-0.89505 -0.0294,-2.33314 -0.5365,-3.09089 -1.46674,-2.1916 -4.89502,1.24879 -5.8135,2.29714 m 27.78125,-0.26458 c -0.0841,-2.58204 -2.21311,-2.11667 -4.23333,-2.11667 v 17.99167 c 1.12616,0.003 3.42214,0.67092 4.03693,-0.60287 1.6385,-3.39477 -0.89898,-8.2622 0.62984,-11.83235 1.135,-2.65046 4.93035,-3.79914 6.65088,-1.04792 1.28184,2.04974 0.85318,4.83111 0.85318,7.13314 v 6.35 c 0.97219,0 3.28866,0.4252 3.96142,-0.42423 0.98217,-1.24011 0.27191,-5.1729 0.27191,-6.71952 0,-5.44324 -0.92323,-13.67309 -8.70757,-10.94877 -1.31617,0.46063 -2.32996,1.44562 -3.46326,2.21752 m 22.48958,-2.50967 c -6.73315,1.38023 -9.51053,10.26751 -5.52847,15.73496 2.5615,3.51702 8.32423,4.07197 12.14183,2.34981 0.86758,-0.39139 2.75012,-2.9378 0.97546,-3.45286 -1.29001,-0.37439 -3.46126,1.11132 -4.94298,1.07283 -1.90486,-0.0495 -3.88759,-0.91756 -4.85539,-2.62216 -0.32398,-0.57062 -0.91855,-1.76591 -0.15904,-2.24793 0.62138,-0.39436 1.92799,-0.12313 2.63318,-0.1229 2.11208,6.8e-4 4.24047,0.0747 6.35,-0.0345 0.73332,-0.038 2.11401,0.20998 2.6385,-0.4275 0.75606,-0.9189 0.22369,-3.26663 -0.0274,-4.3005 -1.03592,-4.26548 -4.83152,-6.85 -9.2257,-5.94925 m 17.72709,3.03884 c -5.2e-4,-0.65397 0.16423,-1.67136 -0.27192,-2.22161 -0.59605,-0.75198 -3.35709,-0.71466 -3.80177,0.18905 -0.55281,1.12345 -0.15965,3.18262 -0.15965,4.41381 0,3.59974 -0.93809,8.68846 0.0841,12.13164 0.32649,1.0998 2.93467,1.18695 3.72499,0.56101 0.84747,-0.6712 0.42424,-3.0003 0.42424,-3.9614 0,-4.47244 -0.25932,-11.62772 6.35,-10.05417 0,-1.02297 0.32126,-2.73302 -0.27192,-3.62006 -1.57978,-2.36233 -5.09885,1.53924 -6.07808,2.56173 m -214.0479,13.22916 c 0.0438,1.80813 3.10786,3.60123 4.07369,1.5232 0.5115,-1.10053 0.15965,-2.97616 0.15965,-4.16903 v -8.73125 c 0,-1.1251 0.32354,-2.86485 -0.15965,-3.90445 -0.4306,-0.92644 -2.89409,-0.90303 -3.6127,-0.32154 -0.83763,0.67779 -0.46099,2.7479 -0.46099,3.69682 0,3.50894 1.15378,11.9773 -4.7625,11.05595 -5.37774,-0.83748 -2.5237,-10.38536 -3.23543,-13.95085 -0.25919,-1.29845 -2.81501,-1.54139 -3.74867,-0.80192 -1.20259,0.95246 -0.42423,5.94022 -0.42423,7.40099 0,5.5927 1.3625,13.12948 8.99583,10.36121 1.21232,-0.43965 2.16108,-1.39509 3.175,-2.15913 m 23.01875,-15.875 v 17.99167 l 3.70417,0.26458 c 1.68266,-3.49654 0.52917,-9.63572 0.52917,-13.49375 0,-1.12538 0.4271,-3.40514 -0.31195,-4.33827 -0.67133,-0.84762 -2.95191,-0.42423 -3.92139,-0.42423 m 178.59375,7.14375 h -8.20208 c 0.92704,-5.4502 8.15089,-6.09534 8.20208,0 m -237.86041,-4.14636 c 7.19502,-1.26644 8.846,10.96796 2.64583,12.02445 -7.41413,1.26335 -9.33762,-10.84659 -2.64583,-12.02445 m 75.93541,0.0135 c 7.06298,-1.4492 8.83084,10.6155 2.64563,11.96708 -7.43203,1.62403 -9.25563,-10.61084 -2.64563,-11.96708 m 92.03579,6.48473 c 1.30758,0.38894 0.64579,2.6207 0.22072,3.46879 -0.88999,1.77561 -3.0305,2.7737 -4.94298,2.16872 -1.77014,-0.55996 -2.48951,-2.77522 -1.20919,-4.22496 1.05446,-1.194 4.41107,-1.86478 5.93145,-1.41255 z"
         id="path29-5" /><g
         id="g29"
         transform="translate(43.719702,17.076067)"><rect
           style="opacity:1;fill:#f05125;fill-opacity:1;stroke-width:0.264583"
           id="rect29"
           width="37.907066"
           height="37.907066"
           x="-38.827137"
           y="-274.93692" /><rect
           style="fill:#7ebb42;fill-opacity:1;stroke-width:0.264583"
           id="rect29-2"
           width="37.907066"
           height="37.907066"
           x="2.7337162"
           y="-274.93692" /><rect
           style="fill:#fdb913;fill-opacity:1;stroke-width:0.264583"
           id="rect29-2-3"
           width="37.907066"
           height="37.907066"
           x="2.7337162"
           y="-233.4666" /><rect
           style="fill:#31a1db;fill-opacity:1;stroke-width:0.264583"
           id="rect29-2-3-4"
           width="37.907066"
           height="37.907066"
           x="-38.827137"
           y="-233.4666" /></g></g></g></svg>
