<?xml version="1.0" encoding="UTF-8" standalone="no"?>
<!-- Created with Inkscape (http://www.inkscape.org/) -->

<svg
   version="1.1"
   id="svg1"
   width="398.04999"
   height="425"
   viewBox="0 0 398.04999 425"
   xmlns="http://www.w3.org/2000/svg"
   xmlns:svg="http://www.w3.org/2000/svg">
  <defs
     id="defs1" />
  <g
     id="g1">
    <path
       style="fill:#43525d;fill-opacity:1"
       d="m 17.545575,423.79218 c -4.52947,-2.59765 -4.43639,-1.22774 -4.43639,-65.29218 0,-46.41568 0.29125,-61.37935 1.21819,-62.58666 2.90694,-3.78617 4.53832,-3.91334 50.20212,-3.91334 46.965895,0 49.228425,0.20204 50.894905,4.5448 0.34165,0.89033 0.62118,29.05346 0.62118,62.58474 v 60.96596 l -2.64602,2.45225 L 110.75353,425 65.149555,424.9696 c -32.41926,-0.0216 -46.18221,-0.36203 -47.60398,-1.17742 z M 96.805362,358.75 96.545572,311.5 h -31.999997 -32 l -0.25979,47.25 -0.25979,47.25 h 32.51958 32.519577 z m 62.990198,65.16989 c -4.87139,-2.83732 -4.74998,-0.23227 -4.74998,-101.91989 0,-102.21011 -0.14367,-99.24719 4.94461,-101.97036 C 161.22911,219.36659 178.1646,219 207.55676,219 h 45.64267 l 2.92307,2.92308 2.92308,2.92307 V 322 419.15385 L 256.1225,422.07692 253.19943,425 207.3725,424.9696 c -29.26214,-0.0194 -46.45949,-0.39885 -47.57694,-1.0497 z M 239.80129,322.25 l -0.25571,-83.75 -32.25,-0.26385 -32.25,-0.26386 V 321.98615 406 h 32.50571 32.50571 z m 57.16737,99.82692 -2.92308,-2.92307 V 285.52726 c 0,-147.05679 -0.3881,-138.15051 6.11884,-140.41884 4.40911,-1.53703 87.35321,-1.53703 91.76232,0 6.50694,2.26833 6.11884,-6.63795 6.11884,140.41884 V 419.15385 L 395.1225,422.07692 392.19943,425 H 346.04558 299.89173 Z M 378.7996,284.75 379.05361,164 H 346.0496 313.04558 v 120.33333 c 0,66.18334 0.30613,120.63946 0.68028,121.01362 0.37416,0.37415 15.11166,0.56165 32.75,0.41667 L 378.54558,405.5 Z M 2.9686548,217.07692 c -3.69184971,-3.69184 -3.96797971,-8.80513 -0.67308,-12.46382 1.81277,-2.01292 187.3862752,-96.38289 320.9487452,-163.21254 12.65983,-6.33451 22.80972,-11.72543 22.55531,-11.97984 -0.2544,-0.25441 -6.04064,-2.05556 -12.8583,-4.00256 -23.92145,-6.83155 -25.91316,-7.52047 -27.89644,-9.64927 -1.36479,-1.46493 -1.99931,-3.52876 -1.99931,-6.5029097 C 303.04558,3.63015 306.33996,0 311.4545,0 c 3.59521,0 57.7915,14.96653 61.6244,17.01783 2.49668,1.33618 5.04571,6.82864 4.44353,9.5746 -0.23007,1.04917 -2.91898,16.75757 -5.97536,34.90757 -5.50989,32.71998 -5.58347,33.02429 -8.67111,35.86264 -2.68302,2.466393 -3.68251,2.7864 -7.22066,2.311843 -4.64064,-0.62244 -8.60972,-4.347803 -8.60972,-8.081053 0,-1.26227 1.56677,-11.4454 3.48172,-22.62918 1.91495,-11.18378 3.35571,-20.46015 3.20171,-20.61416 C 353.575,48.19608 276.77806,86.75431 183.06914,134.03504 56.874225,197.70654 11.807875,220 9.2905048,220 c -2.42321,0 -4.2378,-0.83903 -6.32185,-2.92308 z"
       id="path1" />
  </g>
</svg>
