<?xml version="1.0" encoding="UTF-8" standalone="no"?>
<!-- Created with Inkscape (http://www.inkscape.org/) -->

<svg
   version="1.1"
   id="svg1"
   width="696.39868"
   height="426.76001"
   viewBox="0 0 696.39868 426.76001"
   xml:space="preserve"
   xmlns="http://www.w3.org/2000/svg"
   xmlns:svg="http://www.w3.org/2000/svg"><defs
     id="defs1"><style
       id="style1">.cls-1{fill:#43525d;}</style><style
       id="style1-8">.cls-1{fill:#43525d;}</style></defs><g
     id="g1"
     transform="translate(158.19934,86.379997)"><g
       id="g2"
       transform="translate(-194,-259.56)"><path
         class="cls-1"
         d="M 497.8,566.74 H 270.2 A 16.67,16.67 0 0 1 253.67,550 V 396.52 a 16.67,16.67 0 0 1 16.53,-16.77 h 227.6 a 16.66,16.66 0 0 1 16.52,16.77 V 550 A 16.66,16.66 0 0 1 497.8,566.74 Z M 274.06,546.35 H 493.94 V 400.14 H 274.06 Z"
         id="path1" /><path
         class="cls-1"
         d="M 508.62,599.94 H 259.38 a 10.2,10.2 0 0 1 0,-20.39 h 249.24 a 10.2,10.2 0 0 1 0,20.39 z"
         id="path2" /><path
         class="cls-1"
         d="m 384,483.44 h -0.85 a 10.2,10.2 0 0 1 0,-20.39 H 384 a 10.2,10.2 0 0 1 0,20.39 z"
         id="path3" /><path
         class="cls-1"
         d="m 721.68,509.7 h -30.91 c -1,-81.4 -16.64,-121.34 -56.4,-145.52 q -26.31,-16 -52.83,-20.16 a 71.47,71.47 0 0 0 44.07,-34.55 34.89,34.89 0 0 0 13.64,-66.58 c -3.86,-43.25 -41.43,-69.71 -76.43,-69.71 -39.88,0 -72.74,30.66 -76.44,69.73 a 34.89,34.89 0 0 0 13.62,66.56 71.23,71.23 0 0 0 44.13,34.58 132.74,132.74 0 0 0 -33.1,9.9 10.2,10.2 0 0 0 8.27,18.64 c 34.87,-15.47 69,-12.52 104.46,9 28.58,17.38 45.48,44.45 46.6,128.1 h -40.54 v -49.14 a 10.2,10.2 0 1 0 -20.39,0 v 49.15 h -66.64 a 10.2,10.2 0 0 0 0,20.39 h 178.89 a 10.2,10.2 0 1 0 0,-20.39 z M 624.57,289.19 a 15,15 0 0 1 -2.78,-0.28 1.2,1.2 0 0 0 -0.2,0 14.61,14.61 0 1 1 3,0.31 z m -61.75,-95.62 a 57.75,57.75 0 0 1 49,28.47 71.87,71.87 0 0 0 -97.44,-0.63 c 10.62,-17.33 29.95,-27.84 48.44,-27.84 z m -76.34,81 a 14.63,14.63 0 1 1 17.58,14.31 c -0.07,0 -0.15,0 -0.23,0 a 14.36,14.36 0 0 1 -2.73,0.28 14.64,14.64 0 0 1 -14.62,-14.59 z m 33.82,29.22 a 34.93,34.93 0 0 0 0.17,-58.35 51.32,51.32 0 0 1 84.73,0 34.93,34.93 0 0 0 0.13,58.34 51.57,51.57 0 0 1 -85,0 z"
         id="path4" /><path
         class="cls-1"
         d="m 257,354 a 133.76,133.76 0 0 0 -30.38,-9.47 73.14,73.14 0 1 0 -42.75,0 c -16.77,3 -33.52,9.54 -50.19,19.68 C 93.87,388.36 78.27,428.3 77.23,509.7 H 46.32 a 10.2,10.2 0 1 0 0,20.39 h 178.89 a 10.2,10.2 0 0 0 0,-20.39 h -66.64 v -49.15 a 10.2,10.2 0 1 0 -20.39,0 V 509.7 H 97.62 c 1.12,-83.65 18,-110.72 46.6,-128.1 35.42,-21.53 69.58,-24.48 104.46,-9 A 10.2,10.2 0 0 0 257,354 Z M 152.41,274.57 a 52.74,52.74 0 1 1 52.73,52.73 52.8,52.8 0 0 1 -52.73,-52.73 z"
         id="path5" /></g></g></svg>
