<?xml version="1.0" encoding="UTF-8" standalone="no"?>
<!-- Created with Inkscape (http://www.inkscape.org/) -->

<svg
   version="1.1"
   id="svg1"
   width="640.8772"
   height="357.39001"
   viewBox="0 0 640.8772 357.39001"
   xml:space="preserve"
   xmlns="http://www.w3.org/2000/svg"
   xmlns:svg="http://www.w3.org/2000/svg"><defs
     id="defs1"><style
       id="style1">.cls-1{fill:#43525d;}</style></defs><g
     id="g1"
     transform="translate(83.438622,-58.305001)"><g
       id="g2"
       transform="translate(-146.98642,-147.015)"><path
         class="cls-1"
         d="m 528.52,429.13 -9.69,-3.57 a 46.4,46.4 0 0 0 5.33,-10.51 l 0.18,-0.49 a 31.54,31.54 0 0 0 -18.72,-40.47 l -80.15,-29.45 a 9.9024871,9.9024871 0 1 0 -6.83,18.59 l 80.16,29.45 a 11.72,11.72 0 0 1 7,15 l -0.18,0.49 c -3.23,8.78 -6.54,9.69 -8.69,9.36 l -68.43,-25.2 -9.79,-3.63 h -0.17 l -35,-12.89 a 9.9042125,9.9042125 0 0 0 -6.84,18.59 l 44.3,16.25 67.63,25 c 0.45,0.17 0.93,0.24 1.38,0.39 l 31.71,11.66 a 11.67,11.67 0 0 1 6.59,6.09 11.92,11.92 0 0 1 0.22,9.38 c -0.76,2 -3.57,4 -7.36,5.06 a 22.63,22.63 0 0 1 -13.12,-0.1 L 369.69,417.38 A 9.9165682,9.9165682 0 1 0 362.86,436 l 33.14,12.12 0.13,0.06 87.62,32.2 c 1.73,0.64 2.75,1.57 3,2.79 0.33,1.46 -0.19,3.92 -2.62,6.54 -6.22,5.34 -27.72,6.93 -36.33,3.76 L 423,484.09 a 22.24,22.24 0 0 0 -4.23,-2.1 L 353.36,457.9 a 9.9000227,9.9000227 0 0 0 -6.87,18.57 l 19.42,7.15 0.13,0.07 46.47,17.59 a 9,9 0 0 1 -2.32,5.66 53.86,53.86 0 0 1 -15.85,5.7 c -2.35,-7.23 -7.71,-12.38 -13.49,-17 l -0.88,-0.71 a 10.78,10.78 0 0 0 -1,-0.73 29.84,29.84 0 0 0 -15.7,-4.68 27.67,27.67 0 0 0 -11,2.31 c -2.59,-8.48 -9,-13.64 -13.53,-17.3 l -0.87,-0.71 a 10.78,10.78 0 0 0 -1,-0.73 c -8.25,-5.05 -16.88,-6 -25,-3 -2.5,-6.71 -7.66,-11.58 -13.17,-16 l -0.89,-0.71 a 8.83,8.83 0 0 0 -1,-0.74 29.86,29.86 0 0 0 -15.81,-4.7 27.54,27.54 0 0 0 -7.14,1 c -0.62,-10.8 -7.3,-17.54 -14.66,-23.42 l -0.89,-0.72 a 9.54,9.54 0 0 0 -1,-0.73 29.84,29.84 0 0 0 -15.7,-4.68 c -10.4,0 -18.5,5.81 -24.15,11.9 A 206.59,206.59 0 0 0 187,415.16 c 0.29,-0.78 0.58,-1.58 0.89,-2.4 l 4.14,-11.32 c 5.13,-14 11.65,-31.74 17.79,-48.43 L 222,320 c 0.21,-0.56 0.4,-1.1 0.61,-1.61 a 5.83,5.83 0 0 0 0.23,-0.58 c 1.15,-3.22 2.25,-6.14 3.17,-8.6 l 0.42,-1.11 c 0.25,-0.65 0.48,-1.28 0.68,-1.87 v -0.07 c 14.15,0.37 46.76,0.92 76.85,-0.63 a 9.9,9.9 0 0 0 -0.5,-19.78 h -0.51 c -25.46,1.31 -52.74,1.08 -68.64,0.76 L 237,279.2 a 26.26,26.26 0 0 0 -15.51,-33.7 l -67.68,-25 A 26.19,26.19 0 0 0 120.12,236 L 65.18,384.51 a 26.23,26.23 0 0 0 15.5,33.71 l 67.68,25 a 26.21,26.21 0 0 0 9.09,1.63 v 0 a 26.29,26.29 0 0 0 21.6,-11.49 186.87,186.87 0 0 1 27.23,14.29 23.77,23.77 0 0 0 -2.28,12.65 c 0.79,7.92 5.36,15.11 13.62,21.38 8.3,7.21 16.49,10.87 24.34,10.87 0.73,0 1.39,-0.12 2.08,-0.18 1.63,6.55 6,12.56 13,17.9 8.3,7.22 16.49,10.88 24.35,10.88 a 23.75,23.75 0 0 0 6.05,-0.85 39.12,39.12 0 0 0 9.73,10.4 c 8.33,7.26 16.48,10.91 24.31,10.91 a 25.16,25.16 0 0 0 4.82,-0.47 24.85,24.85 0 0 0 2.61,-0.75 38.12,38.12 0 0 0 10.38,11.45 c 8.31,7.21 16.49,10.87 24.35,10.87 v 0 c 12,0 19.61,-8.51 22.37,-13.81 a 82.52,82.52 0 0 0 7.42,-16 74.54,74.54 0 0 0 27.75,-9.49 9,9 0 0 0 1.18,-0.84 28.41,28.41 0 0 0 9,-14.19 l 9.55,3.61 c 5,1.86 12.2,2.9 19.9,2.9 13.51,0 28.7,-3.2 37,-10.82 0.15,-0.13 0.28,-0.27 0.42,-0.4 a 29.67,29.67 0 0 0 8.11,-15.65 41.25,41.25 0 0 0 8.23,0.9 44,44 0 0 0 12.08,-1.67 c 10,-2.87 17.53,-9.17 20.65,-17.69 A 31.5,31.5 0 0 0 528.59,429.1 Z m -371.06,-4.05 a 6.56,6.56 0 0 1 -2.23,-0.4 l -67.68,-25 a 6.43,6.43 0 0 1 -3.8,-8.26 l 54.94,-148.53 a 6.47,6.47 0 0 1 6,-4.22 6.66,6.66 0 0 1 2.31,0.33 l 67.68,25 a 6.45,6.45 0 0 1 3.8,8.27 l -54.99,148.61 a 6.46,6.46 0 0 1 -6.03,4.2 z m 73,41.47 c -0.19,-0.17 -0.4,-0.33 -0.6,-0.49 -3.57,-2.66 -5.78,-5.43 -6.07,-7.56 a 4.66,4.66 0 0 1 0.64,-2.83 v 0 a 9.64,9.64 0 0 0 1.54,-2.3 c 0.42,-0.85 1.05,-1.93 1.77,-3.07 v 0 c 0,0 0,-0.1 0.07,-0.14 3.09,-4.78 8.53,-11 13.78,-11 a 9.8,9.8 0 0 1 4.88,1.49 l 0.37,0.29 c 7.83,6.28 11.41,9.14 0.31,28.05 0,0.08 -0.21,0.38 -0.25,0.46 -0.19,0.34 -1.9,3.31 -4.9,3.31 -1.7,-0.01 -5.44,-0.82 -11.58,-6.21 z m 39.41,28.6 a 5.58,5.58 0 0 0 -0.6,-0.49 c -3.56,-2.67 -5.78,-5.43 -6.07,-7.57 a 4.64,4.64 0 0 1 0.64,-2.82 10.06,10.06 0 0 0 1.53,-2.29 c 2.16,-4.46 9.08,-14.23 15.66,-14.23 a 9.85,9.85 0 0 1 4.87,1.48 l 0.37,0.3 c 5.92,4.74 9.4,7.54 6,16.78 a 10,10 0 0 0 -1.1,2.65 90.68,90.68 0 0 1 -4.54,8.61 l -0.26,0.46 c -0.18,0.34 -1.9,3.32 -4.89,3.32 -1.77,0 -5.48,-0.81 -11.65,-6.2 z m 52.63,26.56 c -2.82,0.58 -7.4,-1.66 -12.48,-6.12 a 6.71,6.71 0 0 0 -0.58,-0.48 c -3.49,-2.62 -5.51,-5.17 -5.94,-7.25 0.09,-0.17 0.23,-0.36 0.31,-0.52 a 94.82,94.82 0 0 0 5.54,-10.94 c 8.2,-10.76 14,-8.29 16.64,-6.75 l 0.38,0.31 c 7,5.59 9.32,7.48 5.63,17.38 a 67,67 0 0 1 -5.28,10.66 5.84,5.84 0 0 0 -0.35,0.65 c 0,0 -1.58,2.6 -3.91,3.06 z m 46.08,17.89 c -0.18,0.33 -1.9,3.31 -4.89,3.31 -1.69,0 -5.43,-0.81 -11.57,-6.21 -0.19,-0.17 -0.39,-0.32 -0.6,-0.48 -3.57,-2.67 -5.77,-5.43 -6.07,-7.57 a 4.71,4.71 0 0 1 0.63,-2.81 v 0 a 10.27,10.27 0 0 0 1.55,-2.31 c 2.15,-4.46 9.08,-14.23 15.65,-14.23 a 9.85,9.85 0 0 1 4.88,1.48 l 0.37,0.3 c 4.37,3.49 7.4,5.93 7.32,10.66 a 10.72,10.72 0 0 0 -0.19,2 c -0.61,3.59 -2.69,8.39 -6.81,15.4 -0.1,0.07 -0.26,0.37 -0.31,0.46 z"
         id="path1" /><path
         class="cls-1"
         d="m 702.84,371 -55,-148.53 a 26.34,26.34 0 0 0 -24.61,-17.15 26,26 0 0 0 -9.09,1.64 l -67.68,25 a 26.26,26.26 0 0 0 -15.5,33.7 l 3,8 c -21.29,1.4 -64.5,3.1 -94.3,-3.35 -1.83,-1 -6.57,-4 -10.8,-6.64 -27.25,-17.19 -41.84,-25.19 -51.18,-25 a 20.45,20.45 0 0 1 -3.49,-0.27 c -17,-2.14 -29,4.14 -55.33,46.77 a 10,10 0 0 0 -1.24,3.06 c -4.43,19.9 0.92,34 6.1,47.65 2.83,7.47 5.76,15.2 7.48,24.55 a 9.9,9.9 0 0 0 6,7.37 c 9.1,3.73 25.48,3 37.14,-4.63 9.44,-6.19 14.78,-16.16 15,-28.07 0,-0.83 0,-1.63 0,-2.42 l 13.78,9.4 a 9.9019594,9.9019594 0 0 0 11.16,-16.36 L 383.01,304.4 v 0 a 9.91,9.91 0 0 0 -14.23,13 c 0.29,1.32 1,5.81 0.74,17.28 -0.11,5.5 -2.06,9.29 -6.1,11.95 -4.38,2.86 -10.21,3.62 -14.24,3.55 a 179,179 0 0 0 -7,-21.31 c -4.7,-12.41 -8.15,-21.51 -5.61,-34.75 23.38,-37.54 30.18,-36.68 35.13,-36.06 a 39.12,39.12 0 0 0 6.4,0.41 c 6.34,0.59 30.9,16.08 40.14,21.91 10.74,6.78 13.38,8.4 16.18,9 35.62,8 87.18,5.09 106.59,3.59 l 4.57,12.33 c 0.26,0.72 0.54,1.48 0.78,2.08 4.52,12.37 10.56,28.79 16.52,45 L 581,401.65 c -7.77,3.53 -16.17,8.41 -29.46,17.63 a 9.9017296,9.9017296 0 1 0 11.29,16.27 c 12.58,-8.73 20,-12.94 26.09,-15.75 a 26.09,26.09 0 0 0 30.68,9.83 l 67.68,-25 A 26.28,26.28 0 0 0 702.84,371 Z m -22.38,15.1 -67.68,25 a 6.52,6.52 0 0 1 -8.26,-3.8 L 549.58,258.79 a 6.44,6.44 0 0 1 3.8,-8.26 l 67.67,-25 a 6.4,6.4 0 0 1 8.27,3.8 l 54.94,148.54 a 6.43,6.43 0 0 1 -3.8,8.23 z"
         id="path2" /></g></g></svg>
