<?xml version="1.0" encoding="utf-8"?>
<!-- Generator: Adobe Illustrator 16.0.2, SVG Export Plug-In . SVG Version: 6.00 Build 0)  -->
<!DOCTYPE svg PUBLIC "-//W3C//DTD SVG 1.1//EN" "http://www.w3.org/Graphics/SVG/1.1/DTD/svg11.dtd">
<svg version="1.1" id="Layer_1" xmlns="http://www.w3.org/2000/svg" xmlns:xlink="http://www.w3.org/1999/xlink" x="0px" y="0px"
	 width="800px" height="800px" viewBox="0 0 800 800" enable-background="new 0 0 800 800" xml:space="preserve">
<g>
	<g id="g1">
		<path id="path1" fill="#43525D" d="M153.322,687.203c-6.156-3.53-6.03-1.669-6.03-88.751c0-63.089,0.396-83.43,1.655-85.069
			c3.952-5.147,6.169-5.321,68.238-5.321c63.84,0,66.915,0.275,69.18,6.178c0.464,1.211,0.845,39.491,0.845,85.069v82.869
			l-3.597,3.333l-3.597,3.333l-61.988-0.041C173.963,688.773,155.254,688.312,153.322,687.203z M261.057,598.793l-0.353-64.227
			h-43.497h-43.497l-0.353,64.227l-0.354,64.225h44.203h44.203L261.057,598.793z M346.678,687.376
			c-6.622-3.856-6.457-0.315-6.457-138.537c0-138.93-0.195-134.902,6.721-138.603c1.684-0.902,24.705-1.402,64.656-1.402h62.04
			l3.972,3.977l3.974,3.973v132.056v132.06l-3.974,3.972l-3.972,3.974l-62.291-0.041
			C371.572,688.777,348.197,688.261,346.678,687.376z M455.426,549.18l-0.348-113.839l-43.837-0.358l-43.835-0.358v114.197v114.196
			h44.184h44.184L455.426,549.18z M533.132,684.87l-3.975-3.972V499.264c0-199.889-0.527-187.783,8.317-190.865
			c5.994-2.09,118.737-2.09,124.729,0c8.846,3.082,8.317-9.024,8.317,190.865v181.635l-3.973,3.972l-3.973,3.974H599.84h-62.734
			L533.132,684.87z M644.36,498.207l0.345-164.132h-44.86h-44.861v163.565c0,89.963,0.417,163.981,0.925,164.49
			c0.51,0.509,20.541,0.763,44.517,0.566l43.591-0.358L644.36,498.207z M133.508,406.222c-5.018-5.019-5.394-11.968-0.916-16.942
			c2.465-2.735,254.708-131.009,436.254-221.848c17.207-8.61,31.004-15.938,30.658-16.285c-0.345-0.345-8.21-2.794-17.478-5.44
			c-32.516-9.286-35.224-10.222-37.92-13.116c-1.854-1.992-2.717-4.797-2.717-8.839c0-7.661,4.479-12.596,11.43-12.596
			c4.887,0,78.555,20.344,83.765,23.133c3.395,1.816,6.858,9.281,6.038,13.014c-0.311,1.426-3.967,22.778-8.12,47.448
			c-7.488,44.476-7.59,44.889-11.786,48.748c-3.647,3.352-5.006,3.787-9.815,3.143c-6.309-0.846-11.703-5.91-11.703-10.985
			c0-1.715,2.131-15.557,4.732-30.759c2.604-15.201,4.562-27.811,4.354-28.02c-0.21-0.21-104.598,52.202-231.971,116.468
			c-171.533,86.547-232.79,116.849-236.211,116.849C138.807,410.194,136.341,409.054,133.508,406.222z"/>
	</g>
</g>
</svg>
