<?xml version="1.0" encoding="utf-8"?>
<!-- Generator: Adobe Illustrator 16.0.2, SVG Export Plug-In . SVG Version: 6.00 Build 0)  -->
<!DOCTYPE svg PUBLIC "-//W3C//DTD SVG 1.1//EN" "http://www.w3.org/Graphics/SVG/1.1/DTD/svg11.dtd">
<svg version="1.1" id="Layer_1" xmlns="http://www.w3.org/2000/svg" xmlns:xlink="http://www.w3.org/1999/xlink" x="0px" y="0px"
	 width="800px" height="800px" viewBox="0 0 800 800" enable-background="new 0 0 800 800" xml:space="preserve">
<g>
	<g id="SVGRepo_bgCarrier">
	</g>
	<g id="SVGRepo_tracerCarrier">
	</g>
	<g id="SVGRepo_iconCarrier">
		<g>
			<g>
				<path fill="#43525D" d="M728.707,110H74.319C34.177,110,0,141.617,0,181.674v436.521c0,40.055,34.177,73.624,74.319,73.624
					h654.388c40.143,0,71.293-33.569,71.293-73.624V181.674C800,141.617,768.85,110,728.707,110z M770.91,618.194
					c0,24.019-18.098,44.532-42.203,44.532H74.319c-24.105,0-45.227-20.516-45.227-44.532V181.674
					c0-24.021,21.122-42.581,45.227-42.581h654.388c24.105,0,42.203,18.563,42.203,42.581V618.194z"/>
			</g>
		</g>
		<g>
			<g>
				<path fill="#43525D" d="M670.598,211.819h-87.273c-24.063,0-45.143,18.597-45.143,42.652v87.288
					c0,24.058,21.08,44.606,45.143,44.606h87.273c24.063,0,42.131-20.549,42.131-44.606v-87.288
					C712.727,230.416,694.66,211.819,670.598,211.819z M683.637,342.734c0,8.03-6.514,14.538-14.547,14.538h-87.273
					c-8.031,0-14.545-6.51-14.545-14.538v-87.287c0-8.029,6.514-14.537,14.545-14.537h87.273c8.033,0,14.547,6.509,14.547,14.537
					V342.734z"/>
			</g>
		</g>
		<g>
			<g>
				<path fill="#43525D" d="M379.688,473.637H103.323c-8.041,0-14.545,6.512-14.545,14.545c0,8.032,6.504,14.545,14.545,14.545
					h276.365c8.039,0,14.545-6.513,14.545-14.545C394.233,480.148,387.727,473.637,379.688,473.637z"/>
			</g>
		</g>
		<g>
			<g>
				<path fill="#43525D" d="M379.688,546.364H103.323c-8.041,0-14.545,6.513-14.545,14.545c0,8.033,6.504,14.546,14.545,14.546
					h276.365c8.039,0,14.545-6.513,14.545-14.546C394.233,552.877,387.727,546.364,379.688,546.364z"/>
			</g>
		</g>
	</g>
</g>
</svg>
